<?xml version="1.0" encoding="UTF-8" standalone="no"?><!DOCTYPE svg PUBLIC "-//W3C//DTD SVG 1.1//EN" "http://www.w3.org/Graphics/SVG/1.1/DTD/svg11.dtd"><svg width="100%" height="100%" viewBox="0 0 750 500" version="1.1" xmlns="http://www.w3.org/2000/svg" xmlns:xlink="http://www.w3.org/1999/xlink" xml:space="preserve" xmlns:serif="http://www.serif.com/" style="fill-rule:evenodd;clip-rule:evenodd;stroke-linejoin:round;stroke-miterlimit:2;"><g id="OBJECTS"><path d="M184.12,208.627c1.015,4.768 1.912,9.322 4.43,13.429c0.477,-0.114 0.894,-0.212 1.356,-0.322c-1.238,-4.564 -2.446,-9.015 -3.68,-13.562c-0.764,0.165 -1.384,0.299 -2.106,0.455Zm2.723,-1.249c1.256,4.716 2.498,9.379 3.784,14.207c7.142,-1.461 14.216,-2.8 21.623,-3.202c0.293,1.525 0.591,3.067 0.888,4.609c-1.237,-1.015 -0.982,-2.594 -1.749,-3.89c-7.432,0.676 -14.788,1.869 -22.066,3.677c-0.077,0.193 -0.168,0.419 -0.253,0.631c-0.12,0.028 -0.265,0.1 -0.3,0.065c-0.616,-0.621 -1.328,-0.345 -1.987,-0.178c-4.314,1.095 -8.622,2.215 -12.929,3.333c-1.959,0.508 -3.913,1.028 -5.87,1.543c0.347,1.42 0.684,2.802 1.021,4.184c-1.066,-1.099 -1.447,-2.432 -1.702,-3.846c-0.305,-0.089 -0.617,-0.18 -1.089,-0.317c0.257,-0.216 0.379,-0.397 0.539,-0.441c2.632,-0.718 5.263,-1.436 7.904,-2.117c3.963,-1.022 7.935,-2.012 11.901,-3.024c0.338,-0.087 0.659,-0.241 0.882,-0.325c-0.85,-2.353 -1.779,-4.642 -2.498,-6.994c-0.707,-2.316 -1.201,-4.697 -1.81,-7.134c-0.241,-0.024 -0.537,-0.108 -0.819,-0.075c-11.734,1.389 -22.32,-1.537 -31.641,-8.723c-6.063,-4.673 -10.422,-10.677 -12.985,-17.96c-1.511,-4.294 -2.289,-8.708 -2.398,-13.222c-0.092,-3.801 0.466,-7.563 1.441,-11.248c1.251,-4.732 3.177,-9.164 5.932,-13.224c0.195,-0.287 0.324,-0.619 0.501,-0.962c-1.191,-1.466 -2.364,-2.909 -3.61,-4.442c-1.596,1.453 -2.812,3.125 -3.993,4.812c-3.639,5.193 -5.806,10.973 -6.672,17.237c-1.18,8.543 -0.671,16.978 1.96,25.217c2.352,7.369 6.132,13.859 12.112,18.931c4.38,3.716 9.315,6.401 14.796,8.113c3.151,0.984 6.363,1.72 9.639,2.011c2.713,0.24 5.458,0.252 8.184,0.187c2.221,-0.053 4.434,-0.378 6.653,-0.559c0.366,-0.03 0.743,0.062 1.116,0.098c0.007,0.117 0.014,0.234 0.021,0.351c-1.758,0.281 -3.509,0.739 -5.275,0.806c-3.338,0.128 -6.695,0.198 -10.023,-0.026c-2.504,-0.169 -4.998,-0.732 -7.454,-1.302c-4.564,-1.059 -8.88,-2.787 -12.881,-5.246c-6.922,-4.256 -12.105,-10.083 -15.434,-17.488c-1.872,-4.161 -3.199,-8.503 -3.926,-13.038c-0.644,-4.016 -0.97,-8.04 -0.816,-12.095c0.342,-8.994 2.614,-17.373 8.116,-24.673c1.032,-1.37 2.161,-2.669 3.302,-4.072c-0.946,-1.028 -1.903,-2.066 -2.859,-3.105c0.092,-0.09 0.185,-0.181 0.277,-0.271c1.387,0.481 2.074,1.833 3.216,2.822c2.198,-1.813 4.401,-3.716 7.456,-4.16c0.042,0.868 -0.567,0.802 -0.938,0.924c-2.17,0.713 -3.941,2.043 -5.611,3.538c-0.107,0.096 -0.164,0.246 -0.313,0.479c1.075,1.414 2.167,2.85 3.36,4.417c0.512,-0.613 0.992,-1.165 1.447,-1.737c3.975,-4.999 8.839,-8.87 14.651,-11.536c7.448,-3.415 15.198,-3.943 23.159,-2.402c0.254,0.049 0.478,0.251 0.781,0.418c-0.431,0.565 -0.897,0.391 -1.308,0.292c-3.127,-0.757 -6.302,-0.864 -9.498,-0.765c-3.058,0.095 -6.021,0.732 -8.919,1.644c-5.814,1.829 -10.83,5.021 -15.12,9.298c-3.717,3.706 -6.678,7.958 -8.828,12.791c-1.702,3.824 -2.826,7.768 -3.435,11.9c-0.642,4.358 -0.432,8.658 0.305,12.985c0.627,3.685 1.822,7.158 3.483,10.469c2.365,4.714 5.58,8.772 9.626,12.186c4.557,3.846 9.676,6.625 15.398,8.259c8.67,2.477 17.258,2.297 25.767,-0.847c6.186,-2.285 11.573,-5.772 16.189,-10.453c1.154,-1.171 2.175,-2.474 3.181,-3.836c-1.754,0.723 -3.436,1.564 -5.66,0.517c0.823,-0.117 1.33,-0.257 1.835,-0.25c1.954,0.028 3.394,-0.903 4.514,-2.393c2.279,-3.033 3.043,-8.282 0.887,-11.747c-1.184,-1.905 -3.512,-2.643 -5.856,-1.625c-0.735,0.319 -1.083,0.938 -1.073,1.692c0.021,1.611 -0.79,2.784 -1.883,3.829c-0.987,0.944 -1.962,1.902 -2.98,2.814c-0.691,0.618 -0.987,1.37 -1.058,2.268c-0.095,1.188 0.277,1.703 1.468,1.827c0.805,0.084 1.624,0.045 2.424,0.153c1.138,0.152 1.961,0.782 2.365,1.875c0.067,0.181 -0.038,0.426 -0.074,0.733c-0.245,-0.14 -0.438,-0.183 -0.48,-0.286c-0.57,-1.418 -1.75,-1.674 -3.092,-1.7c-0.651,-0.012 -1.327,-0.042 -1.947,-0.22c-1.11,-0.321 -1.483,-0.886 -1.479,-2.009c0.005,-1.266 0.384,-2.382 1.349,-3.262c0.935,-0.852 1.831,-1.748 2.782,-2.581c1.03,-0.902 1.694,-1.926 1.805,-3.359c0.135,-1.756 0.908,-2.432 2.64,-2.827c3.53,-0.806 5.616,1.383 6.434,3.673c0.827,2.313 0.884,4.656 0.275,7.027c-0.085,0.333 -0.148,0.671 -0.269,1.222c5.826,-8.597 8.157,-24.521 1.163,-37.394c-6.586,-12.12 -16.806,-19.537 -30.842,-21.963c1.002,-0.487 1.725,-0.344 2.436,-0.233c5.089,0.788 9.704,2.789 13.997,5.564c5.959,3.854 10.888,8.734 14.429,14.917c2.646,4.621 4.133,9.622 4.73,14.921c0.388,3.451 0.355,6.879 -0.115,10.302c-0.738,5.376 -2.547,10.389 -5.332,15.043c-4.414,7.377 -10.562,12.899 -18.253,16.657c-2.485,1.214 -5.176,2.006 -7.775,2.988c-0.276,0.104 -0.558,0.19 -0.967,0.328Z" style="fill:#e0e0e0;fill-rule:nonzero;"/><path d="M808.784,424.877c-5.396,2.378 -10.568,3.578 -15.917,3.659c-5.302,0.079 -10.432,-1.01 -15.331,-3.077c-4.976,-2.099 -9.509,-4.972 -12.994,-9.083c-13.455,-15.868 -13.378,-32.551 -2.503,-49.784c-17.863,4.787 -30.461,22.851 -29.171,41.448c1.367,19.702 16.106,35.549 36.071,37.843c18.656,2.143 34.295,-8.969 39.845,-21.006Zm-113.602,-9.559c-0.816,-0.121 -1.656,-0.247 -2.502,-0.372c-4.018,-0.596 -7.728,0.489 -10.722,2.995c-3.16,2.65 -4.361,6.62 -4,10.583c0.899,9.935 10.017,13.79 16.964,11.456c0.562,-0.188 1.166,-0.238 1.846,-0.371c0.515,5.302 3.314,8.648 8.136,10.012c6.349,1.798 11.391,-0.322 15.012,-5.941c0.509,0.261 0.935,0.453 1.337,0.687c5.479,3.196 11.177,3.451 16.946,1.035c3.74,-1.565 6.438,-4.239 7.628,-8.446c-0.793,-0.729 -1.604,-1.38 -2.308,-2.13c-8.876,-9.451 -12.964,-20.583 -11.669,-33.56c0.166,-1.676 -0.254,-2.83 -1.686,-3.842c-5.899,-4.168 -12.396,-5.449 -19.278,-3.572c-7.674,2.094 -12.982,6.936 -14.899,14.899c-0.497,2.052 -0.532,4.213 -0.805,6.567Zm115.454,18.58c0.444,0.211 0.811,0.343 1.136,0.543c4.899,3.032 10.089,3.697 15.568,1.869c4.035,-1.349 7.367,-3.703 8.787,-7.81c0.668,-1.929 1.639,-2.946 3.355,-3.892c6.378,-3.527 9.988,-10.886 5.816,-18.164c-3.302,-5.762 -8.763,-7.8 -15.088,-7.994c-1.847,-0.057 -1.799,0.039 -2.515,-1.709c-1.272,-3.132 -3.012,-5.962 -5.68,-8.119c-5.497,-4.445 -11.687,-6.262 -18.722,-4.92c-9.917,1.892 -17.307,10.06 -17.165,19.985c0.005,0.614 -0.054,1.228 -0.077,1.715c-2.142,-0.072 -4.142,-0.371 -6.083,-0.155c-4.136,0.461 -7.728,2.115 -9.609,6.104c-0.835,1.773 -1.219,3.769 -1.716,5.687c-0.273,1.025 0.219,1.775 1.071,2.44c5.479,4.259 11.656,6.786 18.544,7.55c7.313,0.812 14.272,-0.397 20.84,-3.785c0.485,-0.252 1.088,-0.278 2.136,-0.526c-2.77,7.656 -7.994,12.648 -14.083,17.502c6.243,0.861 10.45,-1.446 13.485,-6.321Zm-78.3,-36.39c2.242,-10.475 7.384,-18.942 15.786,-25.308c5.119,-3.88 10.781,-6.609 17.775,-7.767c-8.177,9.115 -11.562,19.311 -10.071,30.943c1.095,8.494 4.947,15.653 11.29,21.878c1.367,-4.071 1.864,-8.336 5.757,-10.73c3.598,-2.209 7.432,-3.175 11.805,-2.428c1.166,-13.419 8.627,-20.723 21.727,-21.959c7.923,-0.747 18.432,3.337 22.882,14.857c2.408,0.358 4.846,0.405 7.065,1.113c5.798,1.846 10.135,5.42 11.455,11.645c0.976,4.585 -0.059,8.81 -3.278,12.382c-1.568,1.737 -3.391,3.099 -5.467,4.177c-0.557,0.286 -1.095,0.915 -1.296,1.504c-2.113,6.179 -6.781,9.164 -12.864,10.364c-4.822,0.95 -9.331,-0.093 -13.899,-2.648c-0.858,0.979 -1.651,2.068 -2.621,2.952c-3.255,2.952 -7.219,3.582 -11.379,2.993c-1.118,-0.158 -1.952,-0.123 -2.893,0.438c-4.935,2.933 -10.331,4.631 -15.982,5.235c-5.397,0.576 -10.799,0.174 -16.071,-1.363c-5.1,-1.488 -9.781,-3.807 -14.053,-6.964c-0.308,-0.226 -0.651,-0.404 -0.994,-0.611c-4.053,8.965 -15.432,13.202 -26.71,7.239c-3.473,4.408 -7.923,6.779 -13.674,5.826c-5.698,-0.944 -9.568,-4.055 -10.917,-10.116c-5.716,1.564 -10.84,0.606 -15.011,-3.574c-2.758,-2.755 -4.349,-6.289 -4.042,-10.147c0.669,-8.354 5.083,-14.616 17.284,-13.682c-0.308,-18.694 22.568,-28.937 38.396,-16.249Z" style="fill:#e0e0e0;fill-rule:nonzero;"/><path d="M76.424,220.073c-17.272,6.475 -32.912,4.406 -45.039,-9.574c-13.282,-15.309 -12.65,-32.052 -1.901,-48.751c-15.091,3.763 -29.887,19.33 -29.131,40.304c0.641,17.74 12.489,33.873 31.771,38.171c18.972,4.229 36.432,-5.316 44.3,-20.15Zm-113.835,-9.751c-11.779,-1.982 -16.894,4.612 -17.202,12.181c-0.156,3.84 1.292,7.059 3.99,9.601c4.247,4.002 9.318,4.369 14.777,2.428c0.844,6.096 4.11,9.599 9.964,10.49c5.81,0.885 10.227,-1.316 13.18,-6.329c11.78,7.415 24.281,1.128 25.853,-6.446c-1.877,-2.141 -3.894,-4.185 -5.617,-6.452c-6.769,-8.901 -9.34,-19.019 -8.289,-30.075c0.122,-1.282 -0.068,-2.029 -1.111,-2.8c-7.631,-5.637 -15.796,-6.425 -24.231,-2.296c-5.81,2.845 -9.543,7.596 -10.67,14.12c-0.308,1.781 -0.421,3.596 -0.644,5.578Zm101.885,25.062c6.322,0.696 10.659,-1.577 13.679,-6.452c0.504,0.246 0.807,0.353 1.064,0.526c3.085,2.074 6.524,2.872 10.19,2.817c6.991,-0.104 13.581,-4.298 14.893,-10.471c0.13,-0.614 0.961,-1.147 1.567,-1.578c1.354,-0.961 2.953,-1.643 4.132,-2.773c5.374,-5.147 6.134,-11.635 1.541,-17.746c-2.355,-3.132 -5.614,-4.906 -9.389,-5.663c-2.073,-0.416 -4.212,-0.502 -6.308,-0.736c-4.132,-11.438 -14.019,-15.768 -23.267,-14.864c-4.432,0.434 -8.459,2.123 -11.899,5.056c-5.264,4.49 -7.377,10.342 -7.192,17.149c-1.351,-0.19 -2.449,-0.466 -3.549,-0.478c-8.153,-0.092 -12.867,4.008 -13.671,11.822c-0.126,1.231 0.32,2.074 1.32,2.838c5.456,4.173 11.632,6.583 18.41,7.288c7.118,0.74 13.967,-0.396 20.374,-3.745c0.604,-0.316 1.251,-0.803 2.068,0.107c-2.586,7.039 -7.844,12.017 -13.963,16.903Zm-76.519,5.075c-7.411,10.006 -22.652,6.756 -24.943,-4.201c-5.296,1.226 -10.283,0.709 -14.419,-3.211c-2.51,-2.379 -4.024,-5.279 -4.273,-8.814c-0.593,-8.417 3.992,-16.48 17.118,-15.502c0.45,-9.514 4.959,-16.49 13.841,-20.092c8.681,-3.52 16.849,-1.997 24.506,3.937c1.834,-8.458 5.517,-15.733 11.56,-21.661c5.984,-5.871 13.039,-9.784 21.965,-11.464c-8.852,10.138 -12.163,21.338 -9.47,34.045c1.556,7.341 5.306,13.507 10.85,18.948c0.943,-4.326 1.844,-8.471 5.618,-10.872c3.502,-2.226 7.396,-3.306 11.801,-2.391c1.081,-12.946 8.116,-20.362 20.794,-21.92c8.501,-1.044 19.049,2.822 23.832,14.733c2.51,0.409 5.019,0.523 7.333,1.255c5.278,1.67 9.322,4.909 10.894,10.443c1.764,6.211 -0.379,12.045 -5.457,15.821c-0.319,0.237 -0.652,0.463 -1.005,0.644c-1.954,1.002 -3.164,2.397 -4.059,4.58c-1.766,4.302 -5.516,6.774 -9.892,7.996c-4.805,1.342 -9.599,1.155 -14.153,-1.201c-0.555,-0.288 -1.153,-0.492 -1.818,-0.771c-0.706,0.792 -1.312,1.639 -2.078,2.303c-3.508,3.044 -7.564,4.358 -12.17,3.424c-1.147,-0.234 -1.984,0.04 -2.914,0.563c-6.601,3.706 -13.698,5.547 -21.265,5.368c-9.012,-0.213 -17.164,-3.035 -24.424,-8.395c-0.368,-0.271 -0.767,-0.501 -1.321,-0.86c-2.256,5.235 -6.269,8.226 -11.569,9.58c-5.281,1.349 -10.245,0.365 -14.882,-2.285Z" style="fill:#e0e0e0;fill-rule:nonzero;"/><g><path d="M86.84,306.405c1.16,-0.327 1.17,-0.367 0.486,-1.438c-0.162,0.478 -0.287,0.848 -0.486,1.438Zm-2.772,-2.861c-0.049,-0.082 -0.185,-0.543 -0.488,-0.723c-0.156,-0.093 -0.638,0.282 -0.92,0.511c-0.218,0.176 -0.435,0.431 -0.508,0.691c-0.092,0.332 -0.18,0.829 -0.008,1.025c0.197,0.225 0.709,0.325 1.034,0.253c0.709,-0.158 0.994,-0.708 0.89,-1.757Zm-9.536,27.33c-0.502,1.087 -0.159,1.961 0.597,2.786c1.192,1.3 2.732,1.875 4.409,2.064c1.557,0.175 3.079,-0.931 3.492,-2.256c-2.829,-0.863 -5.657,-1.727 -8.498,-2.594Zm12.125,-0.232c-5.128,0.235 -9.718,-1.804 -14.516,-3.252c0.083,1.336 1.011,1.919 1.997,2.299c2.189,0.843 4.409,1.612 6.643,2.328c0.875,0.28 1.815,0.402 2.736,0.477c1.653,0.135 2.569,-0.423 3.14,-1.852Zm-3.79,-28.743c-0.642,-0.153 -1.141,-0.339 -1.651,-0.382c-2.341,-0.2 -3.105,0.785 -2.295,3c0.336,0.917 0.786,1.796 1.234,2.668c0.92,1.789 1.35,3.694 1.202,5.684c-0.126,1.704 -0.395,3.401 -0.664,5.091c-0.228,1.437 -0.547,2.86 -0.848,4.405c1.059,0.317 1.972,0.591 2.951,0.883c0.166,-0.463 0.314,-0.82 0.422,-1.188c0.593,-2.02 1.146,-4.051 1.77,-6.06c0.67,-2.159 1.785,-3.932 4.201,-4.482c0.474,-0.108 0.944,-0.27 1.386,-0.474c0.974,-0.451 1.947,-0.913 2.886,-1.433c0.687,-0.381 1.002,-1.057 1.119,-1.818c0.131,-0.842 -0.202,-1.438 -0.881,-1.613c-0.922,-0.236 -1.499,0.047 -1.828,0.9c-0.071,0.183 -0.106,0.382 -0.193,0.556c-0.319,0.632 -0.823,0.83 -1.298,0.526c-0.49,-0.314 -0.55,-0.846 -0.136,-1.383c0.149,-0.194 0.325,-0.372 0.511,-0.529c0.505,-0.427 0.471,-0.907 0.219,-1.456c-0.559,-1.216 -1.516,-1.388 -2.677,-0.461c0.073,0.479 0.167,0.958 0.214,1.44c0.055,0.569 -0.029,1.175 -0.656,1.318c-0.425,0.097 -1.116,0.055 -1.331,-0.212c-0.274,-0.34 -0.318,-0.997 -0.221,-1.467c0.102,-0.494 0.49,-0.928 0.798,-1.469c-0.694,-0.665 -1.182,-1.548 -2.304,-1.462c0,0.773 0.069,1.461 -0.017,2.129c-0.106,0.818 -0.701,1.264 -1.468,1.467c-0.706,0.186 -1.628,-0.141 -1.973,-0.675c-0.45,-0.692 -0.19,-1.335 0.206,-1.918c0.327,-0.481 0.744,-0.901 1.322,-1.585Zm0.632,21.558c1.42,0.37 2.826,0.803 4.261,1.091c1.167,0.234 1.418,0.024 1.619,-1.077c0.168,-0.913 0.337,-1.838 0.358,-2.761c0.034,-1.478 0.831,-2.227 2.155,-2.584c0.236,-0.064 0.473,-0.132 0.703,-0.216c5.981,-2.173 9.687,-6.41 10.961,-12.594c1.159,-5.628 -0.617,-10.491 -4.661,-14.489c-4.786,-4.732 -10.498,-6.33 -17.029,-4.563c-3.082,0.834 -5.822,2.305 -7.831,4.925c-3.031,3.952 -4.439,8.35 -3.892,13.342c0.37,3.383 1.772,6.196 4.524,8.245c0.688,0.512 0.906,1.092 0.819,1.884c-0.146,1.316 -0.288,2.632 -0.405,3.951c-0.073,0.818 -0.094,1.642 -0.141,2.496c1.449,0.359 2.763,0.684 4.051,1.003c0.099,-0.137 0.192,-0.208 0.206,-0.292c0.449,-2.605 0.971,-5.202 1.307,-7.821c0.313,-2.43 -0.07,-4.787 -1.26,-6.981c-0.419,-0.774 -0.801,-1.58 -1.1,-2.406c-0.908,-2.515 0.15,-3.947 2.815,-3.868c0.147,0.004 0.294,0.019 0.439,0.04c1.39,0.198 2.672,0.83 4.094,0.957c0.518,0.046 1.028,0.546 1.474,0.918c0.29,0.241 0.458,0.627 0.617,0.855c2.522,-1.032 3.182,-0.733 4.591,1.888c0.316,-0 0.655,-0.007 0.994,0.001c1.562,0.04 2.2,0.73 2.164,2.305c-0.037,1.602 -1.09,2.482 -2.344,3.117c-1.132,0.573 -2.321,1.085 -3.542,1.415c-2.044,0.555 -3.079,1.962 -3.666,3.843c-0.756,2.425 -1.501,4.853 -2.281,7.376Zm4.369,4.709c0.626,0.584 0.34,1.123 -0.07,1.67c-0.224,0.299 -0.563,0.607 -0.597,0.938c-0.162,1.562 -1.178,2.157 -2.541,2.417c-0.24,0.046 -0.483,0.077 -0.691,0.109c-0.093,0.104 -0.19,0.164 -0.216,0.246c-0.772,2.474 -3.284,3.277 -5.459,2.694c-1.097,-0.294 -2.138,-0.668 -3.029,-1.41c-1.341,-1.118 -2.187,-2.397 -1.492,-4.248c-1.052,-0.889 -2.422,-1.511 -2.409,-3.145c0.006,-0.901 0.13,-1.766 0.936,-2.328c-0.69,-2.27 -0.567,-2.561 1.739,-4.158c0.223,-1.948 0.469,-3.889 0.652,-5.836c0.056,-0.597 0.173,-1.194 -0.489,-1.711c-3.747,-2.928 -5.164,-6.922 -4.945,-11.536c0.223,-4.716 1.873,-8.922 5.206,-12.302c3.02,-3.062 6.85,-4.41 11.11,-4.695c4.808,-0.323 8.968,1.2 12.598,4.273c2.59,2.193 4.68,4.791 5.656,8.087c1.667,5.631 0.706,10.831 -2.833,15.54c-2.259,3.005 -5.224,4.977 -8.799,6.08c-0.506,0.156 -0.977,0.425 -1.473,0.646c-0.202,1.416 -0.349,2.779 -0.603,4.123c-0.31,1.639 -0.639,1.883 -2.3,1.684c-0.918,-0.111 -1.826,-0.35 -2.721,-0.594c-3.163,-0.862 -6.334,-1.702 -9.469,-2.659c-0.936,-0.286 -1.654,0.061 -2.353,0.421c-0.883,0.455 -0.748,1.736 0.201,2.289c0.417,0.244 0.896,0.419 1.369,0.523c3.773,0.829 7.508,1.881 11.399,2.034c0.733,0.029 1.483,0.036 2.201,-0.085c0.521,-0.088 1.003,-0.404 1.463,-0.601c0.066,0.674 -0.136,1.033 -0.894,1.283c-0.363,0.119 -0.74,0.193 -1.11,0.289c-4.805,-0.301 -9.531,-1.072 -14.137,-2.502c-0.663,-0.206 -1.005,-0.043 -1.24,0.734c0.476,0.254 0.909,0.583 1.397,0.73c2.811,0.845 5.615,1.731 8.466,2.424c1.211,0.294 2.535,0.258 3.795,0.173c0.86,-0.058 1.757,-0.4 1.682,-1.597Z" style="fill:#e0e0e0;fill-rule:nonzero;"/><path d="M49.589,311.548c-2.62,0.972 -5.163,2.063 -7.362,3.801c-2.171,1.717 -3.984,3.766 -5.535,6.055c-1.565,2.31 -2.953,4.715 -3.973,7.378c2.768,-1.709 4.975,-4.256 8.16,-5.281c-3.369,2.747 -6.941,5.231 -10.159,8.453c0.555,-2.131 -0.623,-3.84 -0.912,-5.718c-0.102,-0.656 -0.238,-1.307 -0.192,-2.003c1.064,1.376 1.073,3.141 1.888,4.862c0.28,-0.507 0.498,-0.853 0.668,-1.222c1.799,-3.892 3.97,-7.543 6.926,-10.683c2.502,-2.656 5.452,-4.625 8.94,-5.756c0.68,-0.22 0.677,-0.229 1.551,0.114Z" style="fill:#e0e0e0;fill-rule:nonzero;"/><path d="M132.593,343.856c-2.424,-0.926 -4.636,-1.771 -6.986,-2.67c1.018,-0.643 1.832,-0.019 2.645,0.196c0.884,0.234 1.743,0.566 2.928,0.959c-1.808,-1.945 -3.354,-3.699 -5,-5.352c-1.936,-1.945 -3.898,-3.873 -5.967,-5.673c-1.434,-1.248 -3.002,-2.38 -4.637,-3.349c-1.006,-0.596 -2.252,-0.787 -3.464,-1.185c0.059,-0.472 0.52,-0.428 0.86,-0.425c1.54,0.014 2.878,0.697 4.059,1.56c1.896,1.386 3.814,2.789 5.48,4.432c3.14,3.096 6.105,6.368 9.149,9.561c0.053,0.056 0.173,0.049 0.44,0.116c0.312,-1.811 -0.02,-3.648 0.307,-5.435c0.966,2.385 0.638,4.783 0.186,7.265Z" style="fill:#e0e0e0;fill-rule:nonzero;"/><path d="M126.65,260.167c2.57,-1.238 5.132,-2.473 7.801,-3.759c0.199,1.42 -0.367,2.798 -0.473,4.21c-0.108,1.427 -0.325,2.846 -0.643,4.257c-0.417,-1.574 -0.266,-3.141 0.014,-5.055c-5.889,5.115 -11.275,10.244 -15.057,16.85c-0.757,-0.393 -0.39,-0.844 -0.19,-1.148c0.965,-1.475 1.923,-2.959 2.981,-4.367c3.113,-4.14 6.922,-7.612 10.771,-11.039c0.364,-0.324 0.794,-0.574 1.195,-0.857c0.502,-0.353 0.695,-0.799 0.417,-1.427c-2.218,0.865 -4.187,2.327 -6.603,2.663c-0.039,0.006 -0.1,-0.15 -0.213,-0.328Z" style="fill:#e0e0e0;fill-rule:nonzero;"/><path d="M73.352,277.7c-0.759,-0.127 -0.804,-0.747 -1.063,-1.175c-1.747,-2.89 -3.416,-5.83 -5.264,-8.653c-1.116,-1.706 -2.509,-3.232 -3.926,-5.027c-0.471,1.263 -0.03,2.46 -0.917,3.586c-0.404,-1.21 0.009,-2.223 -0.143,-3.19c-0.155,-0.978 -0.235,-1.983 -0.519,-2.925c-0.291,-0.963 -0.789,-1.865 -1.229,-2.868c3.579,2.311 7.081,4.573 10.606,6.85c-1.147,0.049 -1.261,0.019 -4.398,-1.866c-1.381,-0.83 -2.717,-1.735 -4.134,-2.645c-0.06,0.954 0.249,1.624 0.877,2.273c3.886,4.014 6.863,8.674 9.46,13.587c0.32,0.606 0.793,1.207 0.65,2.053Z" style="fill:#e0e0e0;fill-rule:nonzero;"/><path d="M128.52,285.917c1.536,-0.511 3.126,-0.544 4.726,-0.399c4.011,0.367 7.932,1.195 11.791,2.334c4.421,1.305 8.753,2.855 12.933,4.807c0.648,0.303 1.24,0.725 1.858,1.092c-0.042,0.107 -0.084,0.214 -0.127,0.321c-0.376,-0.111 -0.772,-0.18 -1.124,-0.343c-5.885,-2.722 -11.973,-4.852 -18.285,-6.338c-2.819,-0.663 -5.679,-1.067 -8.575,-1.151c-0.727,-0.021 -1.459,0.145 -2.191,0.188c-0.341,0.02 -0.688,-0.049 -1.032,-0.077c0.008,-0.144 0.017,-0.289 0.026,-0.434Z" style="fill:#e0e0e0;fill-rule:nonzero;"/><path d="M14.786,292.436c1.301,-0.133 2.6,-0.34 3.904,-0.385c7.856,-0.271 15.665,0.424 23.467,1.218c0.104,0.01 0.189,0.198 0.314,0.337c-0.462,0.601 -1.095,0.366 -1.625,0.322c-2.341,-0.192 -4.678,-0.441 -7.017,-0.667c-5.428,-0.525 -10.872,-0.476 -16.314,-0.407c-0.914,0.012 -1.838,0.383 -2.729,-0.418Z" style="fill:#e0e0e0;fill-rule:nonzero;"/><path d="M10.851,292.935c1.668,-1.874 7.551,-4.164 12.507,-4.954c-0.562,0.67 -1.096,0.94 -2.364,1.341c-2.147,0.677 -4.293,1.363 -6.418,2.107c-0.773,0.271 -1.484,0.718 -2.441,1.192c2.353,1.369 4.77,1.859 7.181,2.552c-0.175,0.267 -0.264,0.491 -0.326,0.484c-2.857,-0.34 -5.489,-1.354 -8.139,-2.722Z" style="fill:#e0e0e0;fill-rule:nonzero;"/><path d="M153.183,294.782c3.464,-0.062 6.764,1.119 10.282,1.637c-0.659,-2.271 -2.128,-4.045 -2.517,-6.376c0.849,0.659 2.983,4.767 3.967,7.55c-2.084,-0.446 -4.05,-0.891 -6.026,-1.284c-1.926,-0.383 -3.864,-0.712 -5.797,-1.065c0.03,-0.154 0.061,-0.308 0.091,-0.462Z" style="fill:#e0e0e0;fill-rule:nonzero;"/><path d="M110.664,305.141c4.162,-0.939 8.316,-2.006 12.622,-0.845c0.019,0.107 0.039,0.213 0.058,0.32c-0.234,0.086 -0.49,0.282 -0.699,0.242c-3.71,-0.718 -7.319,0.128 -10.95,0.662c-0.324,0.047 -0.662,0.006 -0.994,0.006c-0.012,-0.128 -0.024,-0.256 -0.037,-0.385Z" style="fill:#e0e0e0;fill-rule:nonzero;"/><path d="M94.73,280.048c0.395,-1.432 0.71,-2.891 1.203,-4.288c0.584,-1.659 1.304,-3.271 2.003,-4.886c0.179,-0.413 0.411,-0.918 1.23,-0.628c-2.025,3.08 -2.522,6.721 -4.082,9.92c-0.118,-0.039 -0.236,-0.079 -0.354,-0.118Z" style="fill:#e0e0e0;fill-rule:nonzero;"/><path d="M59.988,279.58c0.334,0.106 0.72,0.138 0.994,0.33c2.146,1.501 4.211,3.094 5.731,5.257c-0.067,0.077 -0.133,0.153 -0.2,0.229c-2.201,-1.83 -4.403,-3.661 -6.605,-5.492c0.027,-0.108 0.054,-0.216 0.08,-0.324Z" style="fill:#e0e0e0;fill-rule:nonzero;"/><path d="M111.694,322.605c-0.283,-0.031 -0.546,0.015 -0.715,-0.09c-1.06,-0.656 -5.586,-5.561 -6,-6.457c0.967,0.399 6.158,5.417 6.715,6.547Z" style="fill:#e0e0e0;fill-rule:nonzero;"/><path d="M108.741,288.88c2.328,-1.757 5.548,-2.664 7.529,-2.054c-0.708,0.777 -1.677,0.222 -2.425,0.6c-0.818,0.413 -1.737,0.627 -2.61,0.929c-0.809,0.279 -1.616,0.559 -2.425,0.839c-0.022,-0.105 -0.046,-0.209 -0.069,-0.314Z" style="fill:#e0e0e0;fill-rule:nonzero;"/><path d="M63.422,299.752c-2.396,1.175 -4.758,1.715 -7.069,2.391c-0.095,0.028 -0.266,-0.202 -0.422,-0.328c1.301,-0.881 5.873,-2.182 7.491,-2.063Z" style="fill:#e0e0e0;fill-rule:nonzero;"/><path d="M80.481,277.679c-1.064,-2.165 -2.131,-4.327 -3.179,-6.5c-0.037,-0.075 0.113,-0.241 0.277,-0.564c1.811,2.078 2.454,4.52 3.216,6.907c-0.105,0.052 -0.21,0.104 -0.314,0.157Z" style="fill:#e0e0e0;fill-rule:nonzero;"/></g><path d="M550.364,129.906c-0.84,-0.14 -1.932,-0.831 -2.175,0.705c-0.163,1.036 0.816,2.049 1.8,2.021c1.017,-0.029 2.11,-0.983 2.04,-1.89c-0.082,-1.079 -0.747,-1.251 -1.665,-0.836Zm-97.73,-110.867c-0.094,0.152 -0.188,0.305 -0.282,0.458c1.278,1.034 2.479,2.186 3.846,3.081c7.128,4.664 14.303,9.254 21.451,13.885c4.608,2.986 9.369,5.773 13.759,9.054c6.819,5.094 13.395,10.515 20.031,15.851c0.824,0.663 1.564,0.994 2.593,0.757c0.931,-0.214 1.879,-0.349 2.822,-0.505c4.942,-0.815 9.867,-1.751 14.83,-2.403c5.447,-0.716 10.926,-1.185 16.395,-1.73c10.53,-1.051 21.067,-2.045 31.594,-3.139c2.971,-0.309 5.914,-0.883 8.871,-1.335c0.033,-0.169 0.067,-0.338 0.101,-0.507c-0.708,-0.453 -1.4,-0.935 -2.127,-1.355c-14.204,-8.204 -28.405,-16.414 -42.625,-24.592c-7.383,-4.247 -15.022,-8.057 -22.017,-12.967c-0.485,-0.34 -1.174,-0.552 -1.764,-0.544c-1.431,0.019 -2.862,0.166 -4.286,0.327c-4.896,0.552 -9.787,1.162 -14.686,1.694c-6.174,0.671 -12.349,1.346 -18.533,1.912c-6.421,0.587 -12.853,1.086 -19.285,1.545c-3.557,0.254 -7.125,0.347 -10.688,0.513Zm98.426,128.952l-0,-13.973c-3.033,-0.389 -3.909,-1.109 -3.983,-3.204c-0.061,-1.756 0.406,-2.142 3.322,-2.746c1,-4.084 1.946,-8.181 3.009,-12.247c1.669,-6.383 3.491,-12.726 5.112,-19.121c2.674,-10.55 5.785,-20.999 7.425,-31.794c0.391,-2.58 1.025,-5.122 1.621,-8.044c-9.752,0.521 -19.196,1.687 -28.65,2.733c-9.479,1.049 -18.915,2.382 -28.569,4.597c0.264,-0.851 0.407,-1.312 0.583,-1.88c-7.232,-5.659 -14.356,-11.535 -21.807,-16.963c-5.463,-3.979 -11.372,-7.342 -17.051,-11.029c-6.007,-3.9 -12.016,-7.8 -17.937,-11.827c-1.626,-1.105 -2.961,-2.646 -4.388,-4.03c-0.306,-0.296 -0.435,-0.776 -0.694,-1.26c6.67,0.763 13.15,0.328 19.625,-0.171c3.81,-0.294 7.618,-0.63 11.42,-1.014c6.651,-0.671 13.297,-1.394 19.944,-2.094c4.356,-0.459 8.712,-0.921 13.069,-1.375c2.449,-0.255 4.896,-0.535 7.352,-0.715c0.57,-0.041 1.279,0.132 1.734,0.465c6.387,4.677 13.459,8.198 20.301,12.105c6.011,3.434 12.095,6.741 18.087,10.208c9.232,5.342 18.416,10.766 27.608,16.175c1.084,0.638 2.095,1.4 3.449,2.313c-7.542,2.447 -15.043,2.844 -22.812,3.739c-2.285,11.999 -4.756,24.034 -8.061,35.886c-3.286,11.782 -6.249,23.654 -9.442,35.828c0.483,0.351 1.091,0.639 1.475,1.109c0.588,0.717 0.832,1.617 0.115,2.4c-0.739,0.809 -0.586,1.703 -0.596,2.667c-0.038,3.583 -0.162,7.166 -0.319,10.746c-0.036,0.839 -0.325,1.666 -0.497,2.498c-0.149,0.006 -0.297,0.012 -0.445,0.018Z" style="fill:#e0e0e0;fill-rule:nonzero;"/><path d="M818.097,73.42c3.515,0.053 4.302,-0.528 4.935,-3.045c0.196,-0.772 0.308,-1.564 0.426,-2.352c1.042,-6.914 2.101,-13.825 3.101,-20.745c0.923,-6.374 1.775,-12.757 2.668,-19.136c0.58,-4.167 1.172,-8.332 1.77,-12.497c0.349,-2.442 0.852,-4.87 1.047,-7.324c0.29,-3.587 -1.071,-5.342 -4.556,-6.202c-1.231,-0.304 -2.497,-0.486 -3.752,-0.686c-4.94,-0.791 -9.881,-1.63 -14.84,-2.333c-7.159,-1.017 -14.348,-1.855 -21.502,-2.909c-8.651,-1.275 -17.266,-2.797 -25.929,-4.021c-7.088,-1.002 -14.218,-1.731 -21.331,-2.567c-1.503,-0.176 -3.006,-0.438 -4.508,-0.408c-2.373,0.047 -3.728,1.191 -4.148,3.5c-0.539,2.967 -0.971,5.957 -1.349,8.95c-0.628,4.973 -1.107,9.966 -1.787,14.932c-0.935,6.845 -2.065,13.664 -2.983,20.512c-0.769,5.758 -1.337,11.543 -2.041,17.311c-0.39,3.228 0.574,4.652 3.716,5.2c3.207,0.56 6.42,1.095 9.633,1.623c6.668,1.096 13.337,2.178 20,3.268c5.337,0.872 10.662,1.794 15.999,2.612c5.811,0.889 11.639,1.697 17.461,2.518c4.805,0.679 9.616,1.332 14.426,1.985c4.805,0.652 9.61,1.288 13.544,1.814Zm-81.673,-85.578c3.201,0.322 6.373,0.584 9.527,0.973c4.171,0.515 8.349,1.071 12.508,1.714c9.894,1.528 19.769,3.18 29.669,4.661c5.816,0.871 11.68,1.43 17.496,2.276c7.391,1.075 14.781,2.186 22.13,3.502c4.065,0.729 5.651,2.946 5.497,7.112c-0.071,1.894 -0.45,3.778 -0.722,5.663c-0.503,3.537 -1.047,7.068 -1.532,10.608c-0.77,5.584 -1.468,11.178 -2.249,16.76c-0.828,5.901 -1.692,11.797 -2.592,17.687c-0.603,3.921 -1.236,7.839 -1.958,11.738c-0.61,3.285 -2.154,4.446 -5.574,4.123c-3.882,-0.366 -7.751,-0.851 -11.615,-1.387c-6.533,-0.908 -13.053,-1.885 -19.574,-2.856c-7.698,-1.147 -15.396,-2.293 -23.088,-3.487c-8.16,-1.268 -16.313,-2.583 -24.467,-3.894c-4.32,-0.694 -8.633,-1.391 -12.941,-2.145c-4.077,-0.713 -5.408,-2.857 -4.822,-6.981c0.775,-5.425 1.26,-10.89 1.988,-16.322c0.935,-7.009 2.024,-13.999 2.97,-21.007c0.675,-4.957 1.207,-9.933 1.835,-14.896c0.367,-2.919 0.722,-5.843 1.23,-8.74c0.622,-3.561 2.651,-5.128 6.284,-5.102Z" style="fill:#e0e0e0;fill-rule:nonzero;"/><path d="M64.127,92.332c-1.547,0.146 -2.822,0.138 -4.037,0.404c-3.802,0.833 -6.843,2.959 -9.351,5.866c-1.991,2.307 -3.129,4.912 -2.909,8.074c0.278,4.005 2.36,5.529 5.57,5.978c0.751,0.105 1.563,-0.207 2.344,-0.345c9.907,-1.751 14.342,-9.765 13.759,-18.574c-0.453,-6.855 -2.382,-13.443 -4.203,-20.04c-1.481,-5.361 -2.788,-10.769 -4.224,-16.143c-0.544,-2.039 -0.699,-4.219 -2.079,-6.355c-1.999,0.871 -3.975,1.649 -5.879,2.576c-8.727,4.25 -17.394,8.627 -26.164,12.788c-5.725,2.715 -5.738,2.311 -4.255,8.794c1.876,8.205 4.215,16.303 6.171,24.491c0.654,2.737 1.738,5.47 1.225,8.426c-1.236,0.23 -2.487,0.413 -3.713,0.704c-2.656,0.631 -5.323,1.45 -7.229,3.455c-1.738,1.83 -3.119,4.007 -4.607,6.066c-1.36,1.881 -1.142,3.932 -0.315,5.91c1.104,2.638 3.624,3.839 6.952,3.398c4.95,-0.655 9.037,-3.106 12.439,-6.58c2.765,-2.826 3.854,-6.371 2.898,-10.338c-1.285,-5.33 -2.62,-10.647 -3.942,-15.967c-0.76,-3.062 -1.535,-6.12 -2.33,-9.285c9.89,-4.318 19.484,-8.734 28.793,-14.49c2.17,7.14 3.307,14.225 5.086,21.187Zm-34.814,14.667c-1.11,-4.551 -2.139,-8.79 -3.177,-13.027c-1.701,-6.941 -3.417,-13.877 -5.097,-20.823c-0.185,-0.764 -0.181,-1.575 -0.263,-2.364c-0.17,-1.619 0.481,-2.771 1.953,-3.472c3.444,-1.643 6.901,-3.26 10.324,-4.946c6.562,-3.232 13.097,-6.52 19.663,-9.747c1.636,-0.804 3.328,-1.506 5.029,-2.162c0.706,-0.273 1.505,-0.303 2.467,-0.482c0.696,2.372 1.391,4.55 1.972,6.759c2.101,7.984 4.146,15.983 6.249,23.967c1.158,4.397 2.113,8.85 2.3,13.379c0.277,6.727 -1.752,12.611 -7.558,16.594c-2.716,1.863 -5.794,2.995 -9.142,3.144c-4.254,0.191 -6.955,-2.544 -7.294,-6.773c-0.488,-6.082 2.877,-9.849 7.344,-13.011c1.213,-0.859 2.649,-1.451 4.053,-1.98c1.321,-0.497 2.734,-0.748 4.356,-1.172c-1.321,-5.835 -2.644,-11.681 -3.967,-17.522c-8.925,4.424 -17.583,8.715 -26.511,13.141c-0.295,1.134 0.317,2.482 0.665,3.836c1.54,6 3.219,11.966 4.648,17.991c0.49,2.062 0.538,4.263 0.531,6.399c-0.012,3.514 -1.883,6.207 -4.419,8.394c-3.29,2.838 -6.943,5.081 -11.345,5.787c-0.627,0.1 -1.268,0.114 -1.904,0.147c-6.54,0.347 -9.379,-6.063 -7.127,-11.111c2.448,-5.488 6.9,-8.568 12.578,-10.062c1.14,-0.3 2.292,-0.553 3.672,-0.884Z" style="fill:#e0e0e0;fill-rule:nonzero;"/><path d="M112.514,443.351c0.999,1.512 1.701,2.648 2.475,3.732c1.498,2.098 1,3.643 -1.614,4.531c-1.644,0.558 -3.387,0.905 -5.113,1.13c-5.402,0.705 -10.503,0.075 -14.811,-3.693c-6.892,-6.023 -10.181,-14.31 -5.63,-23.524c2.736,-5.54 7.207,-8.714 13.447,-9.362c5.923,-0.615 10.844,1.847 15.625,4.832c0.202,0.126 0.45,0.258 0.55,0.452c1.068,2.066 3.16,2.541 5.083,3.159c2.463,0.793 4.312,-0.007 5.702,-2.221c1.276,-2.036 1.33,-4.225 0.585,-6.426c-0.976,-2.885 -2.861,-5.117 -5.333,-6.847c-7.898,-5.528 -16.499,-7.739 -26.02,-5.357c-5.658,1.415 -10.831,3.91 -15.029,7.97c-10.402,10.059 -12.028,24.135 -6.639,36.065c7.116,15.75 25.351,21.77 40.217,16.502c1.994,-0.706 3.894,-1.677 6.008,-2.6c1.309,1.943 2.574,3.821 4.111,6.103c2.985,-7.722 5.8,-15.001 8.727,-22.572c-7.474,-0.627 -14.665,-1.23 -22.341,-1.874Zm2.264,6.181c-1.024,-2.857 -3.236,-4.547 -3.684,-7.28c0.736,-0.064 1.282,-0.194 1.814,-0.147c6.815,0.595 13.628,1.214 20.44,1.834c0.316,0.029 0.626,0.121 0.937,0.19c1.857,0.416 2.11,0.913 1.423,2.648c-2.314,5.839 -4.615,11.682 -6.922,17.524c-0.695,1.76 -1.373,3.53 -2.884,5.059c-1.928,-1.72 -2.702,-4.111 -4.077,-6.218c-0.923,0.402 -1.792,0.743 -2.628,1.15c-13.405,6.537 -33.598,3.009 -42.998,-12.999c-2.731,-4.654 -4.202,-9.702 -4.494,-15.164c-0.448,-8.417 1.899,-15.791 7.205,-22.332c4.545,-5.602 10.45,-8.975 17.239,-10.96c9.833,-2.875 18.879,-0.797 27.27,4.678c2.833,1.849 5.053,4.346 6.42,7.523c1.539,3.574 0.545,7.79 -2.291,9.929c-1.604,1.21 -3.316,1.459 -5.185,0.934c-2.267,-0.636 -4.132,-1.917 -5.957,-3.403c-4.322,-3.52 -9.231,-5.67 -14.942,-5.18c-6.81,0.583 -11.546,5.256 -13.489,10.925c-2.369,6.914 -0.47,12.848 4.35,18.027c3.356,3.608 7.374,5.776 12.481,5.336c2.134,-0.184 4.288,-0.256 6.39,-0.622c1.188,-0.207 2.289,-0.909 3.582,-1.452Z" style="fill:#e0e0e0;fill-rule:nonzero;"/><path d="M139.162,38.607c1.275,-3.342 3.659,-5.952 5.858,-8.656c5.043,-6.203 11.34,-10.913 18.28,-14.778c8.085,-4.502 16.866,-6.969 25.926,-8.525c1.955,-0.336 3.955,-0.396 5.932,-0.604c1.932,-0.204 3.749,-0.686 5.198,-2.114c0.332,-0.327 0.764,-0.626 1.203,-0.754c0.557,-0.16 1.407,-0.395 1.703,-0.127c0.518,0.472 0.855,1.274 0.99,1.99c0.09,0.475 -0.205,1.108 -0.499,1.558c-2.192,3.361 -2.358,7.242 -2.689,11.018c-0.513,5.853 -2.027,11.396 -4.321,16.774c-3.544,8.311 -8.55,15.671 -14.944,21.986c-3.722,3.677 -7.959,6.84 -12.046,10.135c-0.93,0.749 -1.425,1.491 -1.191,2.61c1.314,6.304 -1.146,11.504 -4.659,16.453c-2.562,3.61 -5.884,6.471 -9.016,9.526c-1.881,1.835 -3.758,3.675 -5.66,5.487c-0.305,0.29 -0.734,0.448 -1.362,0.819c0.344,-2.557 0.825,-4.777 0.895,-7.01c0.074,-2.371 -0.199,-4.757 -0.399,-7.131c-0.192,-2.268 -0.487,-4.528 -0.753,-6.949c-2.456,0.969 -4.639,1.83 -6.78,2.675c-1.773,-1.03 -3.491,-1.877 -5.043,-2.96c-3.017,-2.108 -5.788,-4.493 -7.827,-7.632c-1.041,-1.603 -2.152,-3.167 -3.336,-4.665c-0.582,-0.737 -0.706,-1.364 -0.259,-2.164c0.771,-1.378 1.518,-2.771 2.441,-4.46c-6.619,-1.022 -13.008,-1.218 -19.452,0.621c-0.425,-1.676 0.375,-2.773 1.047,-3.753c1.576,-2.294 3.199,-4.578 5.033,-6.665c3.541,-4.03 7.533,-7.565 12.362,-10.03c2.952,-1.506 6.099,-2.283 9.41,-2.437c1.351,-0.062 2.697,-0.212 4.046,-0.323c-0.272,0.412 -0.465,1.071 -0.832,1.187c-0.818,0.261 -1.722,0.338 -2.591,0.336c-3.758,-0.011 -7.2,1.057 -10.45,2.88c-5.012,2.812 -9.042,6.747 -12.66,11.127c-1.484,1.798 -3.018,3.597 -3.96,5.902c6.714,-1.333 13.23,-1.105 20.056,0.204c-1.262,2.242 -2.381,4.229 -3.404,6.046c3.687,6.889 8.882,12.008 15.412,15.751c2.493,-0.892 4.65,-2.592 7.513,-3.2c1.339,6.376 1.99,12.542 1.817,18.903c3.872,-3.483 7.649,-6.897 11.039,-10.661c3.159,-3.509 5.689,-7.518 6.297,-12.377c0.234,-1.882 0.301,-3.806 0.207,-5.699c-0.089,-1.8 0.605,-2.898 2.045,-3.946c11.202,-8.144 20.309,-18.051 25.783,-30.98c2.183,-5.157 3.889,-10.405 4.239,-16.064c0.259,-4.203 0.726,-8.409 2.954,-12.17c0.24,-0.404 0.19,-0.979 0.324,-1.765c-0.747,0.281 -1.286,0.324 -1.568,0.616c-2.1,2.163 -4.796,2.698 -7.622,2.851c-4.553,0.246 -8.988,1.097 -13.377,2.312c-7.094,1.963 -13.895,4.562 -20.124,8.566c-7.255,4.663 -13.449,10.397 -18.349,17.525c-0.73,1.062 -1.881,1.835 -2.837,2.741Z" style="fill:#e0e0e0;fill-rule:nonzero;"/><path d="M375.463,68.581c-0.068,0.219 -0.136,0.437 -0.204,0.656c1.162,0.563 1.366,2.17 3.247,2.094c5.87,-0.237 11.749,-0.216 17.218,-0.289c1.164,-1.454 2.098,-2.622 3.032,-3.79c-2.781,0.384 -5.229,1.406 -7.778,1.861c-2.55,0.455 -5.209,0.528 -7.807,0.429c-2.578,-0.1 -5.139,-0.624 -7.708,-0.961Zm1.339,-1.628c3.907,2.4 16.928,1.728 19.367,-1.087c-0.805,-0.894 -1.731,-1.212 -2.945,-0.888c-0.751,0.2 -1.61,0.356 -2.347,0.195c-3.671,-0.804 -7.249,0.179 -10.858,0.469c-1.143,0.092 -2.34,0.336 -3.217,1.311Zm3.575,34.094c5.664,0.844 10.965,0.433 16.187,-1.072c0.686,-0.198 1.296,-0.661 2.092,-1.081c-4.409,-2.951 -15.901,-1.625 -18.279,2.153Zm-0.825,-1.87c6.247,-3.63 12.55,-3.65 19.306,-2.31c-0.77,-8.509 -1.511,-16.69 -2.238,-24.728c-6.517,0.192 -12.756,0.376 -19.309,0.57c0.749,8.84 1.484,17.52 2.241,26.468Zm-3.522,-26.862c-1.229,-0.762 -2.425,-1.717 -1.995,-3.232c0.465,-1.637 1.161,-3.376 3.115,-3.889c1.759,-0.462 3.543,-1.07 5.332,-1.127c3.226,-0.105 6.44,-1.309 9.704,-0.198c0.397,0.135 0.929,-0.194 1.396,-0.182c1.172,0.03 2.385,-0.036 3.508,0.24c2.689,0.662 3.541,3.488 1.549,5.367c-0.929,0.876 -0.958,1.693 -0.855,2.744c0.397,4.037 0.773,8.076 1.146,12.114c0.571,6.177 1.149,12.352 1.693,18.53c0.357,4.041 0.636,8.087 0.993,12.127c0.365,4.12 0.837,8.229 1.157,12.352c0.253,3.253 0.355,6.518 0.499,9.779c0.016,0.361 -0.13,0.729 -0.426,1.099c-1.658,-12.402 -2.578,-24.866 -3.728,-37.519c-3.318,1.127 -6.4,1.782 -9.603,1.813c-3.076,0.029 -6.151,0.176 -9.523,0.28c-0,0.801 -0.073,1.812 0.011,2.809c0.51,6.024 1.067,12.042 1.585,18.065c0.326,3.803 0.414,7.641 0.98,11.407c0.419,2.793 1.286,5.549 2.227,8.225c1.14,3.245 3.877,4.711 7.043,5.436c4.934,1.132 9.092,-0.562 10.9,-4.604c0.768,-1.718 1.229,-3.613 1.56,-5.475c0.292,-1.633 0.195,-3.333 0.293,-5.002c0.043,-0.749 0.142,-1.495 0.627,-2.242c0.192,0.729 0.512,1.45 0.555,2.188c0.222,3.781 -0.253,7.488 -1.86,10.934c-2.39,5.124 -7.009,6.593 -12.414,5.397c-3.894,-0.861 -6.41,-3.206 -8.332,-6.81c-2.064,-3.871 -1.765,-7.915 -2.168,-11.938c-0.443,-4.429 -0.768,-8.868 -1.143,-13.303c-0.375,-4.44 -0.748,-8.879 -1.12,-13.318c-0.512,-6.101 -1.019,-12.201 -1.534,-18.3c-0.38,-4.519 -0.768,-9.038 -1.172,-13.767Z" style="fill:#e0e0e0;fill-rule:nonzero;"/><path d="M196.42,176.413c0.312,-1.291 -0.384,-1.847 -0.978,-2.418c-0.765,-0.735 -1.568,-1.431 -2.352,-2.145c-1.301,-1.185 -1.679,-2.519 -0.976,-4.231c0.472,-1.151 0.8,-2.412 0.909,-3.649c0.219,-2.477 -1.307,-4.358 -3.722,-4.948c-0.677,-0.166 -1.342,-0.431 -1.968,-0.741c-0.713,-0.354 -0.967,-1.07 -0.897,-1.794c0.094,-0.983 0.448,-1.878 1.492,-2.282c0.802,-0.31 1.597,-0.635 2.401,-0.939c0.991,-0.374 2.027,-0.653 2.972,-1.118c1.346,-0.662 1.667,-1.519 1.333,-2.98c-0.284,-1.245 -0.609,-2.569 0.029,-3.723c1.208,-2.19 2.338,-4.497 4.865,-5.573c0.77,-0.328 0.884,-0.88 0.407,-1.576c-0.496,-0.723 -1.25,-1.069 -2.077,-1.086c-1.873,-0.038 -3.761,-0.127 -5.618,0.059c-3.679,0.368 -7.248,1.324 -10.795,2.346c-1.747,0.504 -3.498,0.996 -5.257,1.457c-0.646,0.169 -1.322,0.208 -1.849,-0.344c-0.576,-0.604 -0.237,-1.229 0.002,-1.837c0.253,-0.641 0.531,-1.273 0.934,-2.233c-1.01,0.092 -1.703,0.086 -2.362,0.23c-1.225,0.266 -2.199,1.011 -3.094,1.848c-1.551,1.452 -3.068,2.941 -4.628,4.383c-2.002,1.851 -4.293,2.621 -6.99,1.751c-0.481,-0.155 -0.967,-0.352 -1.463,-0.395c-0.896,-0.078 -1.869,-0.278 -2.691,-0.032c-2.791,0.833 -4.846,2.652 -6.174,5.245c-0.373,0.727 -0.502,1.524 0.136,2.471c0.68,-0.305 1.375,-0.56 2.012,-0.917c0.925,-0.518 1.776,-1.175 2.719,-1.654c1.208,-0.613 2.099,-0.203 2.406,1.102c0.329,1.398 0.209,2.762 -1.024,3.725c-0.707,0.553 -1.474,1.209 -2.306,1.383c-1.145,0.239 -1.949,0.999 -2.939,1.45c-0.97,0.443 -1.454,1.8 -1.203,2.722c0.249,0.911 1.116,1.445 2.396,1.469c0.203,0.005 0.409,0.018 0.608,-0.011c1.694,-0.255 3.384,-0.543 5.081,-0.774c2.155,-0.294 4.31,-0.673 6.477,-0.779c2.401,-0.118 4.713,0.357 6.789,1.737c1.417,0.941 2.542,2.156 3.594,3.449c1.483,1.825 3.383,2.862 5.697,3.132c1.505,0.177 3.025,0.428 4.529,0.38c3.996,-0.127 7.157,1.406 9.698,4.421c0.748,0.887 1.589,1.7 2.435,2.495c0.365,0.343 0.853,0.554 1.442,0.924Zm-21.874,-36.075c0.769,-0.037 1.242,0.021 1.669,-0.092c2.784,-0.737 5.554,-1.523 8.336,-2.269c4.176,-1.12 8.417,-1.759 12.752,-1.542c0.738,0.037 1.5,0.237 2.188,0.517c0.993,0.403 1.458,1.292 1.403,2.294c-0.05,0.935 -0.743,1.196 -1.447,1.546c-0.556,0.277 -1.062,0.718 -1.485,1.182c-0.61,0.671 -1.133,1.423 -1.681,2.149c-1.024,1.356 -1.5,2.772 -0.97,4.528c0.658,2.184 -0.155,3.649 -2.316,4.525c-0.936,0.38 -1.926,0.623 -2.877,0.968c-0.71,0.257 -1.417,0.536 -2.086,0.882c-0.649,0.336 -0.874,0.976 -0.838,1.67c0.037,0.697 0.516,1.059 1.147,1.249c0.435,0.13 0.864,0.279 1.302,0.395c2.746,0.729 4.428,3.051 4.087,5.853c-0.158,1.291 -0.449,2.597 -0.905,3.811c-0.454,1.209 -0.308,2.167 0.565,3.046c0.605,0.61 1.252,1.176 1.872,1.772c0.509,0.489 1.057,0.952 1.489,1.505c0.263,0.335 0.442,0.807 0.479,1.234c0.11,1.264 -0.756,1.849 -1.824,1.192c-0.676,-0.415 -1.23,-1.036 -1.812,-1.592c-1.314,-1.258 -2.559,-2.595 -3.931,-3.786c-1.582,-1.373 -3.482,-1.97 -5.595,-2.005c-1.816,-0.03 -3.642,-0.109 -5.444,-0.33c-2.818,-0.346 -5.196,-1.549 -6.947,-3.887c-1.291,-1.726 -2.875,-3.137 -4.962,-3.841c-1.788,-0.603 -3.613,-0.905 -5.521,-0.62c-3.448,0.515 -6.904,0.975 -10.358,1.447c-0.349,0.048 -0.71,0.049 -1.062,0.028c-1.547,-0.087 -2.552,-0.806 -2.871,-2.033c-0.32,-1.227 0.222,-2.692 1.397,-3.427c0.808,-0.505 1.716,-0.851 2.573,-1.28c0.811,-0.406 1.663,-0.752 2.407,-1.259c1.1,-0.748 1.511,-2.042 1.165,-3.208c-0.228,-0.768 -0.648,-1.02 -1.361,-0.669c-0.724,0.356 -1.368,0.869 -2.078,1.255c-0.75,0.407 -1.51,0.824 -2.314,1.093c-0.999,0.335 -1.853,-0.232 -1.889,-1.284c-0.023,-0.677 0.11,-1.432 0.408,-2.035c1.21,-2.45 3.138,-4.174 5.629,-5.298c1.405,-0.634 2.862,-0.793 4.27,-0.227c3.432,1.382 6.144,0.381 8.621,-2.157c1.689,-1.73 3.533,-3.334 5.461,-4.791c0.783,-0.592 1.958,-0.821 2.981,-0.906c1.586,-0.132 2.017,0.609 1.397,2.057c-0.278,0.647 -0.565,1.29 -1.024,2.34Z" style="fill:#e0e0e0;fill-rule:nonzero;"/><path d="M718.141,230.768c0.633,0.343 1.065,0.548 1.467,0.795c6.479,3.95 13.29,4.594 20.367,1.931c5.514,-2.074 9.579,-5.624 11.023,-11.588c0.284,-1.157 1.047,-1.657 2.053,-2.088c3.468,-1.481 6.195,-3.876 8.278,-6.994c1.669,-2.494 2.894,-5.304 2.852,-8.248c-0.071,-5.588 -2.278,-10.344 -6.781,-13.875c-4.514,-3.539 -9.639,-5.151 -15.366,-4.777c-1.018,0.066 -1.681,-0.173 -1.983,-1.227c-0.195,-0.684 -0.508,-1.339 -0.798,-1.993c-3.497,-7.886 -9.545,-12.785 -17.799,-14.999c-6.627,-1.78 -13.189,-1.285 -19.349,1.675c-8.455,4.062 -13.727,10.664 -14.822,20.211c-0.189,1.697 -0.242,3.412 -0.355,5.133c-15.934,-2.449 -21.656,6.513 -21.775,15.886c-0.059,4.859 1.758,9.009 5.474,12.234c5.414,4.695 11.526,5.201 18.23,2.643c0.651,7.939 5.349,12.129 12.408,13.352c7.148,1.238 12.941,-1.535 16.876,-8.071Zm0.449,1.776c-4.461,6.144 -10.355,8.775 -17.579,7.521c-7.136,-1.24 -11.84,-5.485 -13.308,-12.845c-4.319,1.192 -8.402,1.344 -12.42,-0.142c-8.42,-3.113 -13.26,-12.504 -10.851,-20.821c0.13,-0.458 0.272,-0.913 0.378,-1.376c2.249,-9.478 11.905,-12.517 18.361,-11.804c0.781,0.087 1.58,0.012 2.574,0.012c0.059,-0.889 0.094,-1.745 0.183,-2.596c1.154,-11.794 7.598,-19.621 18.603,-23.323c11.852,-3.987 22.408,-1.247 31.237,7.715c2.266,2.303 3.798,5.113 4.964,8.082c0.491,1.251 1,1.677 2.379,1.678c5.828,0.006 11.106,1.661 15.627,5.519c7.727,6.595 8.467,17.575 2.562,24.822c-2.125,2.607 -4.74,4.438 -7.639,5.975c-0.681,0.359 -1.344,0.599 -1.562,1.595c-1.101,5.016 -4.349,8.461 -8.734,10.755c-7.822,4.093 -15.728,3.932 -23.556,-0.138c-0.349,-0.181 -0.698,-0.359 -1.219,-0.629Z" style="fill:#e0e0e0;fill-rule:nonzero;"/><path d="M595.826,138.608c-1.242,-0.094 -2.227,-0.289 -3.193,-0.218c-1.818,0.134 -3.621,0.503 -5.44,0.628c-4.548,0.315 -8.321,2.2 -11.102,5.746c-5.661,7.22 -6.144,17.004 -0.877,24.951c4.817,7.269 11.487,12.273 19.419,15.651c4.538,1.932 9.226,3.067 14.168,1.502c2.395,-0.758 4.643,-1.609 5.353,-4.468c0.385,-1.527 1.491,-2.656 2.983,-3.216c1.928,-0.724 3.869,-1.681 5.869,-1.872c2.242,-0.213 3.775,-1.198 4.929,-2.879c1.03,-1.496 2.024,-3.077 2.681,-4.758c2.42,-6.235 2.804,-12.706 1.68,-19.254c-1.024,-5.969 -3.106,-11.509 -7.136,-16.172c-5.976,-6.921 -14.716,-7.332 -20.9,-2.391c-2.419,1.932 -5.021,3.637 -7.498,5.499c-0.455,0.341 -0.713,0.943 -0.936,1.251Zm-2.181,-2.019c-1.404,-0.711 -2.013,-1.255 -2.306,-2.384c-0.3,-1.157 -1.396,-2.095 -2.089,-3.165c-3.682,-5.678 -5.818,-11.822 -5.564,-18.676c0.134,-3.593 0.771,-6.137 2.374,-8.093c-0.239,1.582 -0.422,3.175 -0.728,4.744c-1.242,6.381 0.078,12.352 3.019,17.997c1.275,2.449 2.914,4.709 4.517,7.262c7.872,-3.509 12.114,-9.52 14.111,-17.456c0.617,1.655 0.258,3.13 -0.284,4.585c-2.142,5.759 -5.995,10.049 -11.284,13.102c-0.401,0.231 -0.8,0.466 -1.207,0.705c0.355,1.294 1.004,1.693 2.08,0.926c2.138,-1.523 4.285,-3.035 6.374,-4.622c2.698,-2.051 5.518,-3.649 9.011,-4.068c4.965,-0.595 9.083,1.033 12.674,4.265c3.971,3.565 6.255,8.169 7.912,13.137c2.751,8.247 2.68,16.572 0.556,24.918c-0.391,1.525 -1.119,2.974 -1.782,4.416c-1.372,2.975 -4.194,4.023 -6.999,4.917c-1.136,0.361 -2.503,-0.064 -3.692,0.191c-2.604,0.557 -4.722,1.739 -5.468,4.651c-0.361,1.433 -1.568,2.336 -2.899,3.017c-4.506,2.302 -9.185,2.438 -13.906,0.939c-9.873,-3.133 -17.952,-8.786 -23.826,-17.406c-5.174,-7.593 -5.256,-17.614 -0.077,-25.171c3.033,-4.426 7.183,-7.138 12.715,-7.417c1.587,-0.08 3.171,-0.289 4.746,-0.512c0.504,-0.071 0.974,-0.376 2.022,-0.802Z" style="fill:#e0e0e0;fill-rule:nonzero;"/><path d="M574.944,260.119c1.205,1.847 2.479,2.045 4.076,1.473c4.694,-1.682 9.409,-3.308 14.164,-4.973c-0.36,-1.456 1.809,-2.415 0.783,-4.25c-5.2,5.336 -11.733,7.107 -19.023,7.75Zm0.916,-1.932c5.142,0.882 13.983,-2.635 15.993,-6.405c-5.935,1.172 -11.278,2.949 -15.993,6.405Zm27.057,21.75c-4.577,-1.108 -13.769,3.071 -14.699,6.525c4.504,-0.158 12.527,-3.662 14.699,-6.525Zm-8.881,-22.463c-5.551,2.028 -10.796,3.945 -16.241,5.934c3.049,7.427 6.021,14.666 8.949,21.794c0.954,-0.848 1.774,-1.698 2.713,-2.387c2.993,-2.2 6.341,-3.588 10.018,-4.174c0.976,-0.156 1.945,-0.351 3.173,-0.576c-2.915,-6.968 -5.727,-13.694 -8.612,-20.591Zm23.264,48.48c0.592,0.434 0.856,0.526 0.938,0.704c2.042,4.393 3.004,8.932 1.287,13.641c-1.12,3.07 -3.777,4.576 -6.751,5.112c-2.96,0.532 -6.1,0.771 -8.712,-1.337c-2.604,-2.1 -4.776,-4.538 -6.005,-7.757c-1.926,-5.044 -3.939,-10.057 -5.987,-15.053c-4.34,-10.585 -8.726,-21.152 -13.096,-31.725c-0.851,-2.058 -1.724,-4.108 -2.609,-6.216c-1.079,-0.492 -2.585,-0.717 -2.562,-2.347c0.024,-1.752 0.23,-3.554 1.986,-4.556c3.729,-2.127 7.531,-4.07 11.83,-4.85c1.152,-0.209 2.218,-0.863 3.363,-1.166c0.971,-0.256 1.999,-0.299 2.847,-0.416c1.489,1.873 2.459,3.557 0.773,5.411c7.742,18.708 15.443,37.312 23.125,55.923c0.198,0.48 0.178,1.049 0.052,1.656c-5.193,-10.252 -9.046,-21.086 -13.868,-31.683c-4.672,3.599 -9.954,5.58 -15.892,6.745c0.95,2.418 1.814,4.691 2.732,6.943c2.673,6.55 5.229,13.153 8.12,19.606c1.186,2.646 3.027,5.021 4.735,7.401c1.111,1.55 2.795,2.343 4.753,2.347c1.349,0.002 2.719,0.068 4.045,-0.127c4.003,-0.587 6.615,-3.393 6.702,-7.48c0.045,-2.109 -0.414,-4.238 -0.752,-6.342c-0.219,-1.356 -0.629,-2.682 -1.054,-4.434Z" style="fill:#e0e0e0;fill-rule:nonzero;"/><path d="M651.313,60.635c-0.822,-0.046 -1.508,-0.11 -2.201,-0.119c-2.491,-0.034 -4.982,0.12 -7.124,1.515c-1.325,0.86 -2.396,2.088 -3.662,3.044c-1.817,1.37 -2.042,3.212 -1.48,5.141c0.55,1.875 2.095,2.672 3.994,2.879c3.9,0.425 7.403,-0.651 10.657,-2.701c1.935,-1.219 2.958,-3.04 3.373,-5.257c0.668,-3.553 0.562,-7.118 0.343,-10.703c-0.213,-3.477 -0.267,-6.964 -0.397,-10.492c4.29,-0.899 8.266,-1.654 12.195,-2.578c3.977,-0.934 7.906,-2.035 12.107,-3.127c0.177,5.811 0.029,11.247 -0.042,16.732c-1.568,-0.237 -2.834,-0.696 -4.035,-0.559c-3.497,0.402 -6.604,1.789 -8.911,4.554c-1.207,1.447 -1.817,3.177 -1.669,5.092c0.154,1.922 1.343,3.383 3.237,3.621c4.029,0.507 7.775,-0.15 10.822,-3.165c2.692,-2.666 3.917,-6.008 4.112,-9.654c0.231,-4.44 0.172,-8.898 0.172,-13.348c-0.006,-4.86 -0.095,-9.72 -0.154,-14.58c-0.018,-1.089 0.166,-2.25 -0.899,-3.076c-1.036,0.157 -2.065,0.252 -3.065,0.476c-8.136,1.828 -16.272,3.679 -24.402,5.525c-2.231,0.506 -2.681,0.913 -2.728,3.211c-0.071,3.744 0,7.49 0.03,11.235c0.029,4.46 0.094,8.921 0.094,13.381c0,0.931 -0.225,1.863 -0.367,2.953Zm-0.988,-1.591c0,-5.006 0.012,-9.931 0,-14.855c-0.012,-3.665 -0.148,-7.333 -0.059,-10.995c0.077,-3.128 1.012,-4.012 4.006,-4.675c7.68,-1.699 15.337,-3.489 23.017,-5.162c1.911,-0.416 3.858,-1.07 6.16,-0.379c0.101,1.371 0.278,2.774 0.302,4.178c0.059,3.986 0.017,7.973 0.1,11.958c0.071,3.421 0.379,6.842 0.344,10.26c-0.03,2.699 -0.196,5.438 -0.711,8.079c-1.005,5.154 -3.739,9.063 -8.905,10.922c-2.154,0.775 -4.378,0.926 -6.603,0.653c-3.491,-0.43 -5.414,-3.5 -4.675,-6.966c1.172,-5.508 7.462,-8.75 11.799,-8.797c0.793,-0.009 1.586,-0.002 2.716,-0.002c0.018,-2.166 0.047,-4.363 0.059,-6.56c0.012,-2.147 0,-4.293 0,-6.752c-3.751,0.636 -7.13,1.958 -10.645,2.684c-3.574,0.738 -7.153,1.438 -10.846,2.179c-0.331,3.497 -0.017,6.896 0.077,10.306c0.095,3.329 -0.017,6.681 -0.319,9.998c-0.231,2.554 -1.586,4.698 -3.74,6.133c-3.384,2.257 -7.088,3.589 -11.248,3.192c-6.178,-0.589 -6.965,-6.35 -4.491,-9.794c2.006,-2.792 4.822,-4.355 8.136,-4.985c1.781,-0.339 3.615,-0.414 5.526,-0.62Z" style="fill:#e0e0e0;fill-rule:nonzero;"/><path d="M715.312,62.713c-1.804,3.491 -0.71,6.263 2.959,7.394c0.455,0.141 0.911,0.303 1.378,0.387c7.267,1.303 14.521,2.717 21.817,3.855c7.781,1.214 15.603,2.143 23.402,3.236c5.976,0.837 11.946,1.73 17.922,2.61c6.29,0.925 12.568,1.887 18.864,2.789c6.929,0.994 13.852,2.039 20.798,2.87c4.77,0.569 6.314,-0.807 6.213,-5.353c-0.006,-0.234 -0.077,-0.467 -0.124,-0.762c-0.249,-0.146 -0.503,-0.404 -0.793,-0.446c-37.413,-5.528 -74.827,-11.04 -112.436,-16.58Zm-1.183,-1.341c2.799,0.305 5.408,0.503 7.994,0.888c5.42,0.805 10.828,1.718 16.242,2.569c8.095,1.271 16.183,2.56 24.284,3.778c6.13,0.921 12.284,1.723 18.425,2.611c6.841,0.989 13.675,2.032 20.515,3.016c4.331,0.623 8.674,1.164 13.011,1.771c4.012,0.562 8.024,1.154 12.03,1.756c0.704,0.106 1.378,0.355 2.083,0.482c0.952,0.173 1.372,0.705 1.284,1.666c-0.03,0.318 -0.03,0.638 -0.024,0.957c0.047,5.028 -2.456,6.831 -7.337,6.277c-4.095,-0.466 -8.154,-1.302 -12.237,-1.884c-5.674,-0.808 -11.36,-1.495 -17.035,-2.298c-5.739,-0.813 -11.467,-1.727 -17.207,-2.553c-4.254,-0.613 -8.52,-1.126 -12.775,-1.738c-5.739,-0.825 -11.467,-1.724 -17.212,-2.547c-4.255,-0.61 -8.539,-1.018 -12.769,-1.753c-5.16,-0.897 -10.29,-1.981 -15.408,-3.1c-4.391,-0.96 -5.083,-4.066 -4.598,-7.334c0.113,-0.771 0.426,-1.513 0.734,-2.564Z" style="fill:#e0e0e0;fill-rule:nonzero;"/><path d="M739.779,262.205c-2.142,2.177 -4.662,2.944 -7.39,3.237c-4.864,0.524 -9.456,2.06 -13.988,3.818c-8.958,3.477 -16.479,8.901 -22.39,16.491c-1.562,2.004 -3.036,4.085 -4.438,6.203c-1.018,1.542 -2.432,2.121 -4.171,2.255c-3,0.23 -5.758,1.209 -8.213,2.941c-4.888,3.455 -8.645,7.944 -11.746,13.02c-0.106,0.17 -0.041,0.441 -0.065,0.773c5.207,-1.051 10.361,-1.577 15.811,-0.349c-0.734,1.435 -1.344,2.713 -2.042,3.939c-0.473,0.829 -0.284,1.423 0.261,2.15c2.704,3.588 5.71,6.798 9.615,9.152c2.674,1.614 2.58,1.719 5.39,0.141c0.982,-0.55 1.787,-1.655 3.266,-1.23c1.426,4.703 2.296,9.484 2.231,15.015c2.669,-2.876 5.018,-5.215 7.148,-7.742c3.674,-4.356 6.473,-9.11 5.609,-15.158c-0.313,-2.189 0.29,-3.892 2.237,-5.04c0.136,-0.08 0.248,-0.205 0.367,-0.308c5.544,-4.737 10.491,-9.996 14.106,-16.381c3.639,-6.427 6.319,-13.182 6.74,-20.663c0.219,-3.877 0.1,-7.81 1.94,-11.414c0.054,-0.094 -0.082,-0.283 -0.278,-0.85Zm-58.567,49.064c-5.295,-0.16 -10.295,-0.569 -15.076,1.616c-0.705,-1.263 -0.184,-2.196 0.272,-3.08c2.053,-4.015 4.87,-7.46 8.171,-10.504c1.284,-1.183 2.651,-2.297 4.089,-3.288c2.461,-1.7 5.225,-2.681 8.219,-3.006c1.1,-0.12 2.201,-0.288 3.307,-0.434c4.846,-9.523 12.16,-16.574 21.444,-21.542c6.118,-3.275 12.597,-5.672 19.556,-6.611c2.656,-0.358 5.414,-0.627 7.42,-2.844c0.58,-0.643 1.544,-0.863 2.13,-0.199c0.444,0.506 0.81,1.633 0.544,2.118c-2.26,4.138 -1.609,8.693 -2.1,13.084c-0.592,5.268 -2.273,10.23 -4.539,15.002c-3.461,7.3 -8.319,13.544 -14.349,18.894c-1.254,1.11 -2.503,2.219 -3.792,3.285c-0.811,0.672 -1.113,1.339 -0.853,2.475c0.989,4.349 -0.047,8.378 -2.426,12.051c-1.295,2 -2.715,3.944 -4.266,5.747c-2.236,2.592 -4.639,5.04 -6.988,7.53c-0.444,0.467 -0.982,0.84 -1.71,1.13c1.101,-5.731 -0.183,-11.109 -1.349,-16.693c-0.621,0.321 -1.13,0.51 -1.556,0.817c-2.402,1.735 -4.698,1.287 -7.089,-0.101c-3.437,-1.991 -6.148,-4.709 -8.674,-7.736c-1.752,-2.103 -2.692,-4.012 -0.781,-6.439c0.177,-0.225 0.189,-0.58 0.396,-1.272Z" style="fill:#e0e0e0;fill-rule:nonzero;"/><path d="M357.674,82.706c-2.694,1.319 -5.061,2.784 -7.63,3.65c-2.629,0.886 -5.456,1.186 -8.729,1.851c1.025,0.37 1.618,0.763 2.204,0.753c0.938,-0.016 1.891,-0.229 2.803,-0.482c3.345,-0.928 6.675,-1.906 10.033,-2.872c0.432,-0.95 0.858,-1.885 1.319,-2.9Zm-15.852,3.332c4.327,0.904 12.046,-1.642 13.501,-4.416c-4.704,0.857 -9.157,1.855 -13.501,4.416Zm26.318,33.65c-4.642,-0.496 -10.401,1.724 -12.263,4.783c3.298,-0.16 6.151,-1.272 8.96,-2.393c1.14,-0.454 2.589,-0.75 3.303,-2.39Zm-24.673,-29.124c3.65,10.92 7.322,21.859 11.238,32.994c3.619,-4.267 8.491,-4.71 13.258,-5.711c-3.648,-10.574 -7.218,-20.925 -10.79,-31.279c-4.67,1.361 -9.139,2.664 -13.706,3.996Zm11.729,35.233c1.601,4.138 3.133,8.132 4.701,12.111c0.23,0.584 0.596,1.124 0.951,1.649c2.307,3.409 5.924,4.573 9.816,3.201c2.422,-0.853 3.867,-2.617 4.116,-5.076c0.198,-1.946 -0.081,-3.946 -0.221,-5.917c-0.081,-1.128 -0.309,-2.245 -0.47,-3.367c0.179,-0.048 0.359,-0.095 0.539,-0.143c0.313,0.755 0.676,1.494 0.931,2.268c0.79,2.391 0.903,4.869 0.538,7.322c-0.383,2.575 -1.728,4.545 -4.18,5.719c-4.03,1.931 -8.545,0.948 -11.464,-2.339c-1.533,-1.727 -2.389,-3.692 -3.109,-5.812c-3.932,-11.59 -7.907,-23.166 -11.856,-34.75c-0.922,-2.707 -1.795,-5.43 -2.699,-8.143c-0.363,-1.085 -0.703,-2.022 -1.903,-2.714c-1.633,-0.941 -1.046,-4.045 0.913,-5.175c1.299,-0.75 2.7,-1.381 4.129,-1.835c2.919,-0.928 5.868,-1.777 8.841,-2.513c2.262,-0.559 3.376,-0.004 3.801,1.634c0.116,0.446 0.253,1.082 0.036,1.385c-1.017,1.423 -0.31,2.75 0.135,4.052c2.749,8.051 5.544,16.086 8.321,24.128c2.232,6.458 4.472,12.913 6.674,19.381c0.321,0.944 0.446,1.954 0.417,3.004c-2.484,-3.822 -3.132,-8.383 -5.179,-12.485c-4.234,2.414 -8.688,3.956 -13.778,4.415Z" style="fill:#e0e0e0;fill-rule:nonzero;"/><path d="M629.062,392.713c1.11,-0.252 2.214,-0.533 3.33,-0.752c4.382,-0.861 8.695,-1.912 12.785,-3.793c5.763,-2.65 9.367,-6.998 10.649,-13.21c1.876,-9.099 -3.497,-16.335 -9.074,-19.703c-4.42,-2.669 -9.208,-4.281 -14.311,-5.024c-9.597,-1.399 -18.898,-0.269 -27.846,3.411c-5.661,2.329 -10.279,5.965 -13.403,11.385c-4.488,7.787 -3.111,14.925 2.551,21.273c4.115,4.615 9.5,6.8 15.53,7.526c1.975,0.238 3.973,0.276 5.957,0.441c1.633,0.136 1.939,0.464 1.732,2.087c-0.189,1.49 -0.405,2.998 -0.84,4.427c-0.433,1.424 -1.154,2.761 -1.893,4.469c5.652,-2.913 10.038,-6.905 14.178,-11.257c-0.406,2.369 -2.044,3.895 -3.636,5.345c-3.904,3.555 -8.346,6.363 -12.99,8.856c-0.569,0.305 -1.142,0.724 -1.665,-0.346c3.193,-3.324 5.66,-7.108 5.604,-12.198c-2.456,-0.256 -4.806,-0.459 -7.145,-0.753c-8.832,-1.11 -15.627,-5.326 -19.566,-13.442c-3.015,-6.209 -1.948,-12.247 1.627,-17.937c3.722,-5.922 9.208,-9.579 15.671,-11.891c6.59,-2.357 13.438,-3.458 20.399,-3.173c6.877,0.283 13.597,1.567 19.666,5.15c4.148,2.449 7.458,5.637 9.45,10.119c3.801,8.553 0.385,19.487 -7.183,23.95c-5.386,3.177 -11.251,4.718 -17.347,5.62c-0.468,0.069 -0.956,0.019 -1.434,0.003c-0.235,-0.008 -0.469,-0.063 -0.704,-0.097c-0.03,-0.161 -0.061,-0.324 -0.092,-0.486Z" style="fill:#e0e0e0;fill-rule:nonzero;"/><path d="M561.023,277.496c-3.617,1.534 -7.047,3.46 -9.554,6.711c3.969,-1.032 7.171,-3.202 9.554,-6.711Zm12.508,35.768c3.46,-1.569 6.757,-3.343 8.795,-6.743c-3.948,0.894 -6.852,3.183 -8.795,6.743Zm0.224,2.13c1.201,1.683 2.445,3.436 3.703,5.179c0.373,0.516 0.737,1.054 1.192,1.494c1.366,1.326 2.643,2.803 4.197,3.867c3.009,2.061 7.639,0.914 9.705,-2.123c0.988,-1.453 0.897,-3.034 0.698,-4.608c-0.157,-1.24 -0.603,-2.373 -2.168,-2.554c-0.292,-0.035 -0.542,-0.55 -0.786,-0.863c-1.029,-1.317 -2.048,-2.642 -3.071,-3.964c-1.092,-1.411 -2.183,-2.823 -3.074,-3.974c-3.552,2.578 -6.872,4.988 -10.396,7.546Zm-20.297,-27.407c6.258,8.354 12.269,16.735 18.58,25.082c2.241,-4.284 5.747,-6.509 9.925,-8.252c-6.032,-8.102 -11.982,-16.093 -17.908,-24.052c-3.574,2.436 -6.917,4.713 -10.597,7.222Zm4.483,-4.986c1.716,-0.896 3.432,-1.791 5.155,-2.69c0.053,-0.959 0.098,-1.776 0.153,-2.766c-1.537,1.528 -2.916,2.879 -4.27,4.256c-0.37,0.377 -0.664,0.83 -0.993,1.248c-2.302,1.007 -4.603,2.014 -7.426,3.25c1.152,0.19 1.939,0.578 2.293,0.334c1.717,-1.177 3.905,-1.716 5.088,-3.632Zm32.917,30.919c-0.217,-0.581 -0.434,-1.162 -0.697,-1.868c0.299,0.042 0.584,-0.007 0.69,0.107c2.546,2.763 3.904,5.977 3.533,9.782c-0.075,0.771 -0.279,1.589 -0.649,2.261c-1.589,2.887 -7.146,5.747 -11.509,2.923c-2.179,-1.41 -3.862,-3.188 -5.371,-5.301c-4.579,-6.407 -9.332,-12.69 -14.006,-19.029c-3.021,-4.096 -6.021,-8.209 -9.04,-12.309c-0.74,-1.006 -1.407,-1.968 -2.768,-2.435c-1.655,-0.566 -2.063,-3.103 -0.876,-4.677c0.615,-0.817 1.378,-1.576 2.213,-2.163c2.653,-1.864 5.322,-3.715 8.082,-5.415c2.287,-1.409 3.927,-0.28 4.011,2.446c0.023,0.771 0.504,1.616 0.986,2.271c4.957,6.722 9.956,13.415 14.947,20.113c3.361,4.512 6.726,9.022 10.089,13.531c0.122,-0.079 0.244,-0.158 0.365,-0.237Z" style="fill:#e0e0e0;fill-rule:nonzero;"/><path d="M40.192,-39.373c-15.201,0.051 -28.874,11.768 -28.851,28.881c0.022,16.348 12.688,28.762 28.971,28.768c16.295,0.005 28.95,-12.836 28.824,-29.11c-0.125,-16.08 -13.019,-28.465 -28.944,-28.539Zm-0.001,58.913c-17.203,-0.091 -30.339,-14.111 -30.026,-30.596c0.334,-17.61 15.348,-30.009 30.847,-29.59c14.51,0.392 29.931,12.111 29.247,31.583c-0.575,16.37 -14.295,28.635 -30.068,28.603Z" style="fill:#e0e0e0;fill-rule:nonzero;"/><path d="M284.235,59.852c-0.204,-0.086 -0.408,-0.172 -0.613,-0.259c-0.475,0.258 -0.952,0.513 -1.426,0.775c-3.34,1.848 -6.677,3.701 -10.019,5.546c-1.978,1.092 -3.992,1.091 -5.914,-0.057c-1.634,-0.975 -3.186,-2.088 -4.752,-3.173c-1.698,-1.176 -3.311,-2.487 -5.072,-3.555c-1.182,-0.716 -1.865,-0.248 -1.768,1.124c0.094,1.338 0.454,2.656 0.63,3.992c0.353,2.672 0.74,5.343 0.96,8.027c0.159,1.95 -0.614,3.56 -2.311,4.681c-2.585,1.71 -5.145,3.458 -7.715,5.19c-0.97,0.654 -1.939,1.308 -3.262,2.201c1.289,0.472 2.145,0.859 3.041,1.101c3.672,0.994 7.333,2.049 11.044,2.874c2.568,0.57 3.97,2.126 4.767,4.47c1.123,3.309 2.27,6.609 3.401,9.914c0.245,0.716 0.323,1.535 1.288,1.969c0.393,-0.577 0.786,-1.067 1.086,-1.609c1.078,-1.947 2.135,-3.907 3.181,-5.873c1.046,-1.964 2.075,-3.937 3.1,-5.912c0.952,-1.836 2.237,-3 4.523,-2.687c2.124,0.291 4.272,0.444 6.414,0.577c1.902,0.118 3.821,0.257 5.713,0.122c0.847,-0.061 2.011,-0.562 2.386,-1.228c0.598,-1.059 -0.691,-1.616 -1.356,-2.207c-2.559,-2.272 -5.132,-4.531 -7.776,-6.701c-2.848,-2.336 -3.891,-5.055 -2.503,-8.641c0.887,-2.29 1.522,-4.681 2.197,-7.048c0.337,-1.18 0.51,-2.407 0.756,-3.613Zm-24.914,30.249c-6.077,-1.553 -12.078,-2.573 -17.597,-4.927c0.19,-1.765 1.149,-2.353 2.096,-2.956c2.417,-1.539 4.834,-3.076 7.246,-4.622c0.334,-0.214 0.616,-0.517 0.962,-0.708c3.093,-1.709 3.564,-4.446 2.988,-7.587c-0.471,-2.576 -0.969,-5.147 -1.457,-7.72c-0.029,-0.156 -0.078,-0.31 -0.106,-0.467c-0.218,-1.235 -0.168,-2.574 0.87,-3.284c1.174,-0.801 2.449,-0.197 3.534,0.599c2.437,1.787 4.895,3.546 7.305,5.367c2.606,1.967 5.171,2.036 7.962,0.294c2.832,-1.768 5.798,-3.318 8.707,-4.961c0.278,-0.157 0.558,-0.31 0.846,-0.446c1.751,-0.825 2.739,-0.325 2.537,1.558c-0.227,2.115 -0.799,4.202 -1.331,6.273c-0.475,1.847 -1.003,3.691 -1.681,5.471c-0.803,2.105 -0.185,3.772 1.351,5.163c3.009,2.725 6.079,5.381 9.128,8.062c0.238,0.21 0.527,0.363 0.758,0.579c1.594,1.49 1.349,3.339 -0.691,4.156c-1.154,0.461 -2.472,0.751 -3.708,0.723c-2.617,-0.058 -5.229,-0.373 -7.842,-0.592c-0.236,-0.019 -0.462,-0.128 -0.698,-0.163c-3.912,-0.575 -4.259,-0.381 -6.16,3.184c-1.983,3.72 -3.987,7.428 -6.003,11.13c-0.303,0.554 -0.659,1.11 -1.105,1.548c-0.793,0.777 -1.639,0.697 -2.166,-0.274c-0.525,-0.97 -0.882,-2.036 -1.252,-3.082c-1.326,-3.744 -2.623,-7.5 -3.946,-11.247c-0.13,-0.371 -0.358,-0.707 -0.547,-1.071Z" style="fill:#e0e0e0;fill-rule:nonzero;"/><path d="M153.328,167.197c1.513,-1.087 3.16,-1.11 4.852,-0.715c0.588,0.138 1.165,0.334 1.738,0.529c1.192,0.406 2.389,0.327 3.594,0.085c0.84,-0.17 1.679,-0.353 2.527,-0.471c1.782,-0.248 3.045,0.544 3.836,2.093c0.62,1.215 1.145,2.477 1.734,3.707c0.284,0.592 0.567,1.195 0.942,1.728c0.689,0.981 1.587,1.55 2.864,1.187c0.995,-0.283 1.807,0.058 2.396,0.865c0.569,0.781 0.483,1.673 0.058,2.447c-0.533,0.969 -1.21,1.861 -1.846,2.771c-0.289,0.414 -0.611,0.808 -0.951,1.183c-1.069,1.179 -1.348,2.541 -1.098,4.088c0.112,0.687 0.079,1.408 0.031,2.108c-0.065,0.949 -0.479,1.748 -1.247,2.337c-0.866,0.663 -1.231,1.558 -1.315,2.622c-0.064,0.806 -0.181,1.612 -0.325,2.408c-0.26,1.437 -1.268,2.298 -2.743,2.349c-1.964,0.068 -3.533,-0.764 -4.788,-2.218c-1.662,-1.927 -2.485,-4.261 -3.173,-6.657c-0.418,-1.457 -0.77,-2.941 -1.303,-4.356c-0.851,-2.26 -2.159,-3.038 -4.572,-2.92c-0.911,0.044 -1.821,0.121 -2.732,0.14c-4.065,0.081 -6.696,-3.984 -6.082,-7.613c0.112,-0.666 0.516,-1.327 0.922,-1.891c0.892,-1.239 1.724,-2.493 2.167,-3.974c0.262,-0.876 0.93,-1.297 1.799,-1.412c0.162,-0.022 0.342,0.094 0.881,0.259c-1.722,0.545 -2.09,1.766 -2.571,2.977c-0.33,0.828 -0.898,1.59 -1.476,2.284c-1.424,1.71 -1.328,3.545 -0.483,5.401c0.828,1.822 2.238,2.995 4.296,3.187c0.75,0.07 1.516,-0.018 2.274,-0.043c0.556,-0.018 1.113,-0.089 1.667,-0.069c2.372,0.085 3.882,1.156 4.654,3.444c0.661,1.962 1.145,3.983 1.79,5.95c0.665,2.029 1.527,3.954 3.172,5.439c1.047,0.945 2.234,1.334 3.611,1.251c1.101,-0.067 1.667,-0.518 1.927,-1.584c0.096,-0.391 0.149,-0.798 0.174,-1.201c0.119,-1.932 0.694,-3.597 2.211,-4.966c0.496,-0.448 0.512,-1.467 0.664,-2.242c0.065,-0.327 -0.083,-0.697 -0.137,-1.047c-0.258,-1.68 0.015,-3.18 1.21,-4.509c0.875,-0.972 1.605,-2.08 2.342,-3.167c0.274,-0.404 0.479,-0.906 0.547,-1.387c0.139,-0.963 -0.428,-1.534 -1.399,-1.537c-0.101,-0 -0.202,0.022 -0.303,0.03c-2.327,0.169 -3.319,-0.374 -4.325,-2.457c-0.594,-1.229 -1.123,-2.49 -1.681,-3.736c-0.992,-2.216 -1.909,-2.735 -4.271,-2.405c-0.45,0.063 -0.907,0.124 -1.344,0.245c-1.555,0.429 -3.106,0.47 -4.635,-0.068c-1.609,-0.566 -3.231,-0.805 -4.925,-0.479c-0.372,0.071 -0.77,0.01 -1.155,0.01Z" style="fill:#e0e0e0;fill-rule:nonzero;"/><path d="M475.96,43.776c-3.728,10.524 -5.832,21.138 -9.962,31.114c0.667,-5.64 2.802,-10.898 4.23,-16.333c1.429,-5.435 3.136,-10.798 4.751,-16.298c2.101,0.654 3.789,1.639 5.365,2.857c5.608,4.334 11.162,8.742 16.864,12.949c4.16,3.07 8.533,5.849 12.783,8.797c0.991,0.688 2.015,0.842 3.168,0.716c7.12,-0.78 14.241,-1.551 21.364,-2.304c4.429,-0.468 8.861,-0.887 13.289,-1.355c2.688,-0.284 5.368,-0.671 8.061,-0.903c0.899,-0.077 1.826,0.181 2.691,0.279c0.166,4.481 -4.184,27.8 -5.808,31.012c-0.441,-0.881 -0.242,-1.588 -0.112,-2.3c1.465,-7.972 2.934,-15.943 4.368,-23.92c0.21,-1.164 0.239,-2.36 0.365,-3.671c-1.567,-0 -2.977,-0.121 -4.36,0.019c-7.762,0.784 -15.517,1.637 -23.277,2.453c-4.35,0.458 -8.703,0.891 -13.055,1.335c-0.159,0.016 -0.334,-0.021 -0.475,0.034c-3.188,1.24 -5.947,0.041 -8.515,-1.657c-4.514,-2.984 -9.029,-5.978 -13.389,-9.178c-5.391,-3.956 -10.617,-8.135 -15.933,-12.193c-0.678,-0.517 -1.467,-0.889 -2.413,-1.453Z" style="fill:#e0e0e0;fill-rule:nonzero;"/><path d="M22.366,354.983c-2.33,-9.329 -7.638,-16.93 -13.733,-24.256c3.273,-0.682 5.986,0.036 8.724,1.104c-0.662,-1.14 -1.336,-2.206 -2.191,-3.098c-2.733,-2.852 -5.808,-5.195 -9.756,-6.143c-1.761,-0.423 -3.267,-0.151 -4.55,1.253c-1.072,1.173 -2.273,2.226 -3.418,3.332c-2.704,2.615 -5.137,5.448 -6.835,8.832c-2.157,4.302 -2.008,8.555 1.064,12.299c1.636,1.996 3.855,3.52 5.846,5.215c0.359,0.305 0.89,0.409 1.596,0.716c-0.607,-3.629 -2.343,-6.495 -3.407,-9.663c7.662,6.532 16.868,8.967 26.66,10.409Zm-1.515,-18.945c-3.172,-2.154 -5.623,-4.454 -9.539,-4.104c5.871,7.535 10.833,15.277 13.165,24.835c-9.246,-1.111 -17.601,-3.55 -25.611,-8.214c0.818,2.872 1.544,5.419 2.271,7.967c-0.14,0.117 -0.279,0.235 -0.418,0.353c-1.124,-0.649 -2.338,-1.182 -3.352,-1.972c-2.063,-1.607 -4.203,-3.179 -5.977,-5.078c-3.898,-4.176 -4.364,-8.995 -1.946,-14.108c2.333,-4.932 6.056,-8.708 10.226,-12.097c0.493,-0.4 1.125,-0.679 1.501,-1.164c1.035,-1.333 2.369,-1.395 3.849,-1.155c2.071,0.336 3.963,1.101 5.745,2.202c3.598,2.223 6.445,5.176 8.563,8.813c0.574,0.985 0.881,2.126 1.523,3.722Z" style="fill:#e0e0e0;fill-rule:nonzero;"/><path d="M678.564,404.136c0.057,-0.204 0.113,-0.407 0.171,-0.61c-2.95,-2.356 -6.143,-4.492 -7.724,-8.358c0.722,-0.608 1.393,-1.144 2.03,-1.717c1.532,-1.377 3.31,-2.577 4.524,-4.196c4.211,-5.611 2.874,-13.493 -2.415,-18.343c-2.692,-2.469 -5.917,-4.009 -9.331,-5.183c-1.164,-0.399 -2.369,-0.68 -3.447,-0.986c-0.218,0.286 -0.316,0.36 -0.305,0.409c0.12,0.535 0.235,1.072 0.392,1.597c0.934,3.112 1.078,6.272 0.332,9.418c-2.236,9.429 -8.594,15.121 -17.22,18.664c-1.711,0.703 -3.53,1.146 -5.646,1.82c0.923,0.692 1.561,1.274 2.29,1.701c4.219,2.473 8.802,2.991 13.582,2.487c2.9,-0.306 5.788,-1.063 8.715,0.064c1.846,0.71 3.768,1.271 5.7,1.697c2.762,0.609 5.567,1.033 8.352,1.536Zm-40.685,-8.37c1.421,-0.372 2.461,-0.656 3.508,-0.916c8.685,-2.152 15.248,-7.02 19.068,-15.206c1.728,-3.703 2.027,-7.65 1.082,-11.666c-0.323,-1.374 -0.549,-2.771 -0.866,-4.393c0.852,-0 1.556,-0.131 2.192,0.021c5.428,1.298 10.415,3.451 14.304,7.64c4.569,4.921 5.413,12.692 1.878,18.106c-1.314,2.013 -3.023,3.681 -5.207,4.796c-0.491,0.249 -0.955,0.548 -1.511,0.872c2.15,4.838 6.921,6.823 10.839,10.165c-3.156,0.413 -5.887,0.062 -8.594,-0.469c-4.287,-0.842 -8.593,-1.624 -12.604,-3.494c-0.503,-0.235 -1.264,-0.163 -1.825,0.018c-4.534,1.464 -9.098,1.362 -13.653,0.244c-2.482,-0.609 -4.84,-1.607 -6.736,-3.407c-0.607,-0.576 -1.069,-1.305 -1.875,-2.311Z" style="fill:#e0e0e0;fill-rule:nonzero;"/><path d="M715.679,116.991c-0.988,-0.575 -1.503,-0.908 -2.047,-1.185c-2.343,-1.19 -4.686,-2.366 -7.036,-3.541c-1.786,-0.894 -2.84,-2.286 -2.881,-4.325c-0.03,-1.587 -0.018,-3.175 0.018,-4.762c0.041,-1.71 0.207,-3.423 -0.107,-5.251c-1.592,0.286 -2.42,1.287 -3.325,2.13c-1.16,1.083 -2.207,2.282 -3.379,3.352c-2.018,1.845 -4.231,2.763 -6.947,1.391c-1.633,-0.822 -3.343,-1.49 -5.035,-2.182c-0.976,-0.4 -1.923,-1 -3.254,-0.918c0.26,0.855 0.449,1.524 0.674,2.181c0.929,2.705 1.787,5.437 2.829,8.099c0.71,1.822 0.408,3.426 -0.586,4.959c-0.734,1.131 -1.598,2.18 -2.408,3.264c-1.16,1.56 -2.326,3.119 -3.675,4.932c0.905,0.075 1.373,0.183 1.823,0.139c3.165,-0.313 6.337,-0.594 9.49,-1.009c3.089,-0.406 3.9,-0.045 5.308,2.744c0.615,1.208 1.195,2.437 1.894,3.594c0.775,1.289 1.615,2.55 2.538,3.737c0.455,0.587 1.083,1.239 2.065,0.631c0.367,-3.216 0.775,-6.451 1.095,-9.694c0.29,-2.855 1.645,-4.736 4.514,-5.428c1.237,-0.298 2.468,-0.631 3.675,-1.042c1.467,-0.501 2.899,-1.101 4.757,-1.816Zm-30.828,-2.516c-1.597,-4.915 -3.804,-9.083 -4.443,-13.726c1.071,-0.844 1.929,-0.507 2.834,-0.127c2.562,1.075 5.165,2.061 7.716,3.169c1.68,0.728 3.136,0.38 4.426,-0.731c1.384,-1.194 2.639,-2.529 3.988,-3.764c0.875,-0.804 1.751,-1.644 2.745,-2.28c1.391,-0.885 2.568,-0.396 2.793,1.235c0.207,1.481 0.036,3.013 0.036,4.523c-0,1.742 -0.042,3.485 0.006,5.225c0.047,1.499 0.893,2.515 2.195,3.173c2.692,1.365 5.396,2.714 8.094,4.076c0.698,0.352 1.728,0.635 1.491,1.575c-0.159,0.653 -0.864,1.357 -1.508,1.666c-1.279,0.614 -2.675,0.985 -4.036,1.434c-1.432,0.474 -2.876,0.913 -4.313,1.381c-1.586,0.518 -2.509,1.58 -2.728,3.264c-0.42,3.223 -0.911,6.438 -1.29,9.665c-0.113,0.918 -0.201,1.78 -1.13,2.19c-1.036,0.456 -1.841,-0.124 -2.592,-0.752c-1.941,-1.638 -3.142,-3.868 -4.053,-6.106c-1.308,-3.208 -2.911,-5.045 -6.74,-3.987c-2.189,0.606 -4.55,0.614 -6.834,0.846c-1.023,0.105 -2.077,0.234 -3.089,0.107c-1.159,-0.144 -1.579,-1.121 -0.917,-2.105c1.024,-1.515 2.19,-2.932 3.278,-4.402c1.415,-1.909 2.811,-3.831 4.071,-5.549Z" style="fill:#e0e0e0;fill-rule:nonzero;"/><path d="M126.164,99.841c0.577,-0.39 1.198,-0.73 1.723,-1.18c2.869,-2.454 5.464,-5.091 6.351,-8.977c0.296,-1.296 0.049,-2.349 -0.769,-3.312c-1.44,-1.7 -2.768,-3.528 -4.392,-5.032c-2.03,-1.882 -4.186,-3.691 -6.52,-5.162c-2.551,-1.608 -5.521,-1.729 -8.294,-0.583c-3.32,1.371 -5.621,3.994 -7.6,6.878c0.08,0.158 0.161,0.316 0.241,0.474c2.741,-0.884 5.482,-1.768 8.821,-2.845c-6.342,6.904 -9.581,14.66 -11.28,23.496c8.485,-1.866 15.436,-6.063 22.271,-10.933c0.734,2.656 -0.312,4.765 -0.552,7.176Zm-15.155,-16.682c-2.22,0.473 -4.429,0.945 -7.134,1.521c1.656,-3.301 3.632,-5.646 5.975,-7.669c1.07,-0.923 2.278,-1.758 3.555,-2.354c3.897,-1.814 7.631,-1.035 11.104,1.168c3.82,2.423 6.812,5.707 9.288,9.471c0.131,0.198 0.197,0.458 0.364,0.611c2.113,1.935 1.469,4.08 0.571,6.306c-1.693,4.194 -8.021,10.179 -13.365,10.877c0.991,-1.277 1.994,-2.338 2.715,-3.565c0.744,-1.267 1.212,-2.695 1.615,-4.244c-7.062,4.369 -14.136,8.475 -22.778,9.818c0.366,-4.115 1.641,-7.772 3.021,-11.323c1.4,-3.608 3.322,-7.012 5.069,-10.617Z" style="fill:#e0e0e0;fill-rule:nonzero;"/><path d="M237.389,30.898c0.524,1.215 1.051,2.428 1.569,3.645c0.685,1.609 1.393,3.208 2.024,4.838c0.169,0.437 0.096,0.969 0.138,1.505c-0.393,-0.05 -0.647,-0.021 -0.683,-0.097c-2.267,-4.663 -4.516,-9.335 -6.966,-14.421c0.742,0.354 1.097,0.471 1.392,0.673c4.096,2.808 8.264,2.312 12.441,0.247c1.14,-0.564 2.195,-1.295 3.316,-1.901c0.303,-0.164 0.702,-0.15 1.386,-0.281c-1.678,2.342 -3.861,3.376 -6.092,4.104c-2.131,0.694 -4.416,0.914 -6.824,1.38c5.841,2.648 11.706,4.621 18.025,5.267c4.073,0.418 8.089,0.498 12.15,-0.037c12.251,-1.615 21.963,-7.175 28.352,-17.991c0.618,-1.047 0.604,-1.056 1.958,-1.763c-0.119,0.569 -0.113,1.042 -0.31,1.407c-3.584,6.632 -8.692,11.746 -15.402,15.205c-7.177,3.7 -14.889,5.174 -22.876,4.81c-7.033,-0.321 -13.856,-1.906 -20.314,-4.822c-1.14,-0.514 -2.224,-1.15 -3.333,-1.731c0.535,-0.872 0.113,-1.19 -1.107,-1.4c0.533,0.629 0.845,0.996 1.156,1.363Z" style="fill:#e0e0e0;fill-rule:nonzero;"/><path d="M688.342,331.41c1.083,0.061 1.651,0.686 1.521,1.711c-0.154,1.244 -0.266,2.58 -0.799,3.677c-2.077,4.241 -5.331,7.23 -10.23,8.895c0.988,-2.287 3.254,-3.697 2.781,-6.485c-5.379,3.868 -10.758,7.456 -17.657,8.662c1.089,-6.312 2.509,-12.114 5.864,-17.861c-2.13,0.517 -3.811,0.924 -5.55,1.347c1.87,-5.53 7.224,-10.624 12.313,-9.481c1.373,0.308 2.734,0.822 3.982,1.468c2.799,1.451 4.977,3.686 6.953,6.094c0.455,0.561 0.615,1.37 0.911,2.064c-1.568,-1.445 -3.142,-2.882 -4.704,-4.337c-1.888,-1.755 -4.006,-3.036 -6.438,-3.97c-3.597,-1.378 -9.177,2.262 -10.337,6.326c2.237,-0.862 4.29,-1.654 6.349,-2.446c-2.094,2.896 -3.911,5.794 -5.059,9.028c-1.13,3.174 -2.45,6.342 -2.426,10.058c3.509,-0.749 6.391,-2.277 9.148,-3.98c2.739,-1.689 5.325,-3.632 8.1,-5.551c0.9,1.97 -0.307,3.599 -0.225,5.289c3.906,-1.866 6.284,-6.427 5.503,-10.508Z" style="fill:#e0e0e0;fill-rule:nonzero;"/><path d="M552.668,172.734c-0.011,-2.141 -0.61,-3.674 -1.591,-5.402c-0.9,1.047 -1.633,1.899 -2.522,2.933c1.497,0.898 2.68,1.608 4.113,2.469Zm-5.434,-14.861c-3.005,1.777 -6.049,3.18 -8.462,5.765c2.998,1.999 5.813,3.876 8.608,5.74c1.254,-1.198 2.327,-2.224 3.396,-3.246c-1.182,-2.756 -2.3,-5.364 -3.542,-8.259Zm-9.93,4.657c3.549,-2.162 6.731,-4.084 9.894,-6.035c0.846,-0.523 1.599,-0.382 1.971,0.442c2.445,5.415 4.904,10.83 6.276,16.651c0.018,0.073 -0.008,0.157 -0.015,0.242c-0.859,1.118 -1.835,0.883 -2.844,0.233c-3.739,-2.407 -7.376,-4.994 -11.241,-7.178c-5.374,-3.036 -8.805,-7.939 -12.625,-12.472c-3.633,-4.313 -7.124,-8.746 -10.623,-13.17c-1,-1.265 -2.016,-2.577 -2.201,-4.321c7.147,8.602 14.038,17.382 21.408,25.608Z" style="fill:#e0e0e0;fill-rule:nonzero;"/><path d="M-26.856,468.83c0.538,1.196 0.898,2.52 1.65,3.561c1.578,2.184 3.165,4.427 5.102,6.273c4.336,4.134 9.227,7.532 14.72,10.018c5.188,2.35 10.584,3.762 16.291,4.147c8.654,0.584 16.75,-1.251 24.351,-5.309c6.206,-3.311 11.283,-7.954 15.484,-13.577c0.57,-0.764 1.205,-1.48 1.825,-2.205c0.141,-0.163 0.345,-0.273 0.785,-0.61c-0.398,2.428 -1.856,3.941 -3.105,5.486c-4.199,5.197 -9.259,9.391 -15.229,12.432c-7.614,3.879 -15.698,5.591 -24.231,5.029c-9.986,-0.657 -18.809,-4.341 -26.764,-10.317c-3.524,-2.648 -6.836,-5.495 -9.306,-9.173c-0.922,-1.373 -1.583,-2.929 -2.264,-4.447c-0.15,-0.333 0.12,-0.855 0.196,-1.289c0.165,-0.006 0.33,-0.013 0.495,-0.019Z" style="fill:#e0e0e0;fill-rule:nonzero;"/><path d="M551.671,97.393c-1.439,0.773 -2.843,1.619 -4.321,2.305c-5.265,2.441 -10.818,3.681 -16.616,3.912c-11.132,0.445 -21.865,-1.5 -32.321,-5.238c-7.219,-2.58 -14.278,-5.485 -20.621,-9.871c-4.808,-3.325 -9.145,-7.187 -12.883,-11.696c-0.27,-0.326 -0.415,-0.757 -0.622,-1.145c0.971,-0.6 1.254,0.141 1.644,0.577c3.411,3.803 7.068,7.332 11.223,10.335c5.926,4.283 12.449,7.423 19.311,9.8c5.027,1.741 10.14,3.335 15.327,4.485c8.705,1.929 17.559,2.228 26.351,0.611c3.084,-0.568 6.019,-1.974 9.007,-3.038c1.401,-0.498 2.766,-1.094 4.148,-1.645c0.124,0.202 0.249,0.406 0.373,0.608Z" style="fill:#e0e0e0;fill-rule:nonzero;"/><path d="M522.178,126.596c-1.907,-2.317 -3.402,-3.6 -5.169,-4.49c-2.228,-1.123 -4.425,-0.878 -6.391,0.921c-1.626,1.487 -2.306,3.309 -1.648,5.583c0.69,2.381 1.991,4.242 4.085,5.783c2.707,-2.998 6.659,-4.404 9.123,-7.797Zm-5.504,9.574c2.099,-2.665 5.446,-3.93 7.963,-6.713c-0.543,-0.528 -1.031,-1.004 -1.436,-1.398c-2.535,1.843 -4.806,3.425 -6.995,5.114c-1.145,0.883 -2.401,1.803 -1.817,4.107c-3.452,-2.838 -6.403,-5.317 -6.819,-9.559c-0.253,-2.573 0.741,-4.681 2.869,-6.18c2.189,-1.541 4.519,-1.832 6.971,-0.618c2.858,1.417 4.868,3.797 6.936,6.11c0.668,0.747 1.064,1.81 2.346,1.806c0.236,-0 0.515,0.336 0.705,0.573c6.406,8 12.839,15.981 18.149,24.784c0.26,0.432 0.438,0.914 0.654,1.373c-0.137,0.099 -0.274,0.198 -0.411,0.297c-0.547,-0.619 -1.159,-1.192 -1.63,-1.863c-2.465,-3.517 -4.791,-7.136 -7.363,-10.571c-2.997,-4.004 -6.159,-7.889 -9.332,-11.759c-1.356,-1.653 -1.525,-1.531 -3.208,-0.156c-2.03,1.658 -4.13,3.233 -6.221,4.815c-0.272,0.206 -0.67,0.245 -1.009,0.361c-0.117,-0.175 -0.234,-0.349 -0.352,-0.523Z" style="fill:#e0e0e0;fill-rule:nonzero;"/><path d="M27.833,431.057c-0.662,6.013 0.113,11.442 1.903,16.766c-2.711,-3.602 -3.404,-7.743 -3.455,-12.148c-0.888,0.269 -1.091,0.85 -1.237,1.581c-1.067,5.318 -3.931,9.707 -7.385,13.722c-5.151,5.989 -11.703,9.743 -19.37,11.522c-5.323,1.234 -10.709,1.527 -16.125,0.613c-0.259,-0.044 -0.489,-0.267 -0.899,-0.502c0.77,-0.861 1.573,-0.632 2.3,-0.533c7.795,1.059 15.278,-0.157 22.31,-3.545c7.346,-3.539 12.698,-9.209 16.274,-16.539c0.488,-1.001 0.94,-2.019 1.401,-3.034c0.024,-0.055 -0.017,-0.14 -0.05,-0.368c-1.484,0.923 -2.878,1.895 -4.366,2.688c-1.458,0.778 -2.907,1.806 -5.026,1.316c2.733,-1.61 5.441,-2.783 7.609,-4.6c2.193,-1.838 3.853,-4.313 6.116,-6.939Z" style="fill:#e0e0e0;fill-rule:nonzero;"/><path d="M29.874,387.062c-1.491,1.309 -2.599,2.183 -3.589,3.175c-1.635,1.64 -3.393,1.84 -5.43,0.816c-1.142,-0.575 -2.328,-1.123 -3.874,-1.432c0.493,1.479 0.863,2.605 1.244,3.727c0.128,0.376 0.277,0.743 0.428,1.11c0.852,2.078 0.214,3.867 -1.037,5.559c-0.712,0.963 -1.372,1.965 -2.378,3.412c2.126,-0.231 3.61,-0.45 5.102,-0.544c3.698,-0.235 3.488,-0.406 5.262,2.737c0.467,0.829 0.832,1.722 1.359,2.509c0.312,0.465 0.848,0.78 1.613,1.451c0.215,-1.793 0.422,-3.113 0.523,-4.441c0.283,-3.724 0.825,-4.41 4.446,-5.473c0.95,-0.28 1.89,-0.596 3.299,-1.042c-1.807,-0.98 -3.132,-1.818 -4.551,-2.441c-1.883,-0.826 -2.565,-2.191 -2.436,-4.172c0.095,-1.472 0.019,-2.957 0.019,-4.951Zm-11.558,10.034c-0.972,-3.09 -2.634,-5.691 -2.592,-9.177c1.117,0.288 1.938,0.436 2.711,0.716c0.967,0.35 1.928,0.75 2.836,1.231c1.858,0.985 3.316,0.516 4.644,-1.005c0.728,-0.833 1.555,-1.618 2.463,-2.242c0.528,-0.363 1.438,-0.659 1.931,-0.439c0.444,0.198 0.733,1.13 0.778,1.76c0.101,1.424 0.042,2.864 -0.015,4.295c-0.053,1.341 0.431,2.284 1.69,2.853c1.374,0.62 2.752,1.252 4.049,2.012c0.55,0.321 1.274,1.01 1.24,1.484c-0.035,0.495 -0.814,1.074 -1.394,1.364c-0.843,0.421 -1.787,0.657 -2.707,0.898c-3.001,0.784 -3.429,1.251 -3.76,4.349c-0.136,1.264 -0.134,2.552 -0.377,3.793c-0.12,0.61 -0.556,1.475 -1.03,1.615c-0.518,0.154 -1.473,-0.216 -1.837,-0.676c-0.978,-1.232 -1.828,-2.588 -2.571,-3.978c-1.106,-2.07 -1.139,-2.163 -3.495,-1.926c-1.582,0.159 -3.161,0.341 -4.737,0.546c-0.885,0.114 -1.967,0.345 -2.261,-0.668c-0.167,-0.576 0.368,-1.474 0.797,-2.078c1.146,-1.613 2.407,-3.145 3.637,-4.727Z" style="fill:#e0e0e0;fill-rule:nonzero;"/><path d="M171.089,233.432c-0.035,0.321 -0.072,0.657 -0.154,1.412c-0.466,-1.692 -1.691,-0.916 -2.559,-1.117c0.01,-0.106 0.019,-0.213 0.029,-0.319c0.424,-0.216 0.849,-0.432 1.359,-0.69c0.115,-1.274 -0.578,-2.599 -0.015,-4.206c0.945,1.354 0.163,2.979 1.26,4.147c2.277,-0.498 4.63,-1.015 6.985,-1.526c2.42,-0.526 4.846,-1.027 7.262,-1.575c2.362,-0.535 4.711,-1.125 7.07,-1.673c2.363,-0.549 4.728,-1.088 7.097,-1.611c2.417,-0.535 4.828,-1.102 7.261,-1.551c2.323,-0.429 4.596,-1.233 7.024,-1.021c-3.438,1.123 -6.993,1.72 -10.5,2.514c-3.597,0.814 -7.19,1.647 -10.785,2.467c-3.545,0.808 -7.088,1.623 -10.637,2.412c-3.545,0.79 -7.096,1.552 -10.697,2.337Z" style="fill:#e0e0e0;fill-rule:nonzero;"/><path d="M603.614,104.069c5.609,10.018 1.443,22.809 -9.06,26.942c0.773,-0.675 1.54,-1.357 2.32,-2.023c2.804,-2.397 5.288,-5.034 6.796,-8.48c2.005,-4.577 1.708,-9.815 -0.302,-14.373c-0.218,0.054 -0.497,0.041 -0.66,0.173c-4.875,3.91 -9.418,8.078 -11.347,14.331c-0.77,2.494 -0.509,4.848 0.658,7.151c0.259,0.508 0.408,1.073 0.774,2.061c-1.715,-0.691 -2.119,-1.789 -2.493,-2.845c-1.097,-3.096 -0.738,-6.151 0.724,-8.999c1.044,-2.034 2.307,-3.989 3.7,-5.805c2.433,-3.171 5.482,-5.719 8.89,-8.133Z" style="fill:#e0e0e0;fill-rule:nonzero;"/><path d="M200.733,207.803c2.279,-1.494 4.464,-2.927 6.798,-4.457c-0.536,1.137 -1.071,1.639 -2.926,2.851c-1.136,0.742 -2.273,1.483 -3.457,2.255c0.59,1.063 1.131,2.036 1.765,3.178c-1.094,-0.005 -1.129,-0.764 -1.467,-1.182c-0.378,-0.467 -0.701,-0.979 -1.098,-1.542c-3.562,1.709 -7.083,3.415 -11.058,4.389c0.168,-0.928 0.801,-0.897 1.265,-1.085c2.433,-0.985 4.874,-1.952 7.299,-2.959c0.644,-0.267 1.239,-0.652 1.953,-1.035c-0.688,-1.153 -1.343,-2.253 -1.999,-3.352c1.373,0.521 1.84,1.862 2.925,2.939Z" style="fill:#e0e0e0;fill-rule:nonzero;"/><path d="M42.868,473.364c0.252,-1.786 1.908,-2.097 2.933,-3.059c1.039,-0.977 2.223,-1.799 3.301,-2.739c1.136,-0.99 2.268,-1.995 3.317,-3.077c0.964,-0.994 1.816,-2.098 2.92,-3.089c-0.269,4.569 -0.648,9.119 0.816,13.45c1.412,4.172 3.214,8.214 4.8,12.202c-3.716,-2.41 -7.269,-13.118 -7.142,-22.003c-3.394,3.216 -6.844,6.177 -10.945,8.315Z" style="fill:#e0e0e0;fill-rule:nonzero;"/><path d="M207.768,79.24c-2.588,2.275 -2.378,5.642 -3.984,8.344c-1.134,-1.419 0.124,-2.509 -0.09,-3.831c-1.122,0.579 -2.113,1.186 -3.176,1.614c-1.055,0.423 -2.184,0.667 -3.436,0.726c4.709,-2.303 8.894,-5.058 10.777,-10.71c0.395,0.944 0.703,1.459 0.83,2.015c1.015,4.431 2.235,8.784 4.648,12.705c0.108,0.174 0.057,0.446 0.094,0.808c-1.18,0.228 -1.577,-0.588 -1.88,-1.353c-1.137,-2.877 -2.223,-5.774 -3.315,-8.669c-0.165,-0.436 -0.258,-0.899 -0.468,-1.649Z" style="fill:#e0e0e0;fill-rule:nonzero;"/><path d="M391.642,34.081c-2.452,-0.231 -4.414,2.06 -4.614,3.925c-0.167,1.556 1.477,2.985 3.307,2.997c2.099,0.014 4.091,-1.81 4.129,-3.781c0.033,-1.761 -1.175,-3.106 -2.822,-3.141Zm-1.339,8.223c-2.439,-0.023 -4.559,-2.043 -4.453,-4.36c0.126,-2.766 3.209,-5.301 5.381,-5.153c2.128,0.146 4.526,2.409 4.462,4.467c-0.084,2.672 -2.647,5.071 -5.39,5.046Z" style="fill:#e0e0e0;fill-rule:nonzero;"/><path d="M372.407,18.044c-0.728,0.324 -1.369,0.595 -1.998,0.893c-1.651,0.781 -2.393,2.533 -1.87,4.381c0.424,1.497 1.739,2.289 3.51,2.114c1.816,-0.181 3.098,-1.437 3.275,-3.172c0.222,-2.175 -0.986,-3.374 -2.917,-4.216Zm-0.49,-0.408c3.098,-0.065 4.534,1.217 4.555,4.068c0.023,3.04 -1.827,4.939 -4.832,4.967c-2.709,0.023 -4.528,-1.764 -4.5,-4.42c0.031,-2.92 1.719,-4.55 4.777,-4.615Z" style="fill:#e0e0e0;fill-rule:nonzero;"/><path d="M579.21,232.501c1.71,0.061 3.46,-1.657 3.582,-3.515c0.085,-1.305 -1.533,-3.138 -2.756,-3.122c-1.647,0.021 -3.506,2.086 -3.55,3.94c-0.036,1.514 1.101,2.639 2.724,2.697Zm4.841,-3.751c0.06,2.412 -2.202,4.934 -4.546,5.064c-2.258,0.126 -4.296,-1.696 -4.318,-3.859c-0.023,-2.285 2.259,-5.105 4.192,-5.182c2.119,-0.085 4.623,2.047 4.672,3.977Z" style="fill:#e0e0e0;fill-rule:nonzero;"/><path d="M336.794,64.939c1.94,0.084 3.371,-1.253 3.532,-3.074c0.122,-1.396 -1.364,-2.976 -3.271,-3.159c-1.98,-0.19 -3.76,1.36 -3.814,3.098c-0.05,1.609 1.58,3.048 3.553,3.135Zm0.297,1.231c-2.432,-0.046 -4.256,-1.257 -4.843,-3.088c-0.524,-1.635 0.095,-3.423 1.625,-4.647c0.245,-0.197 0.53,-0.503 0.789,-0.496c2.023,0.056 4.142,-0.189 5.838,1.286c1.165,1.013 1.239,2.394 0.879,3.743c-0.443,1.662 -1.609,2.701 -3.298,3.095c-0.384,0.09 -0.789,0.087 -0.99,0.107Z" style="fill:#e0e0e0;fill-rule:nonzero;"/><path d="M207.845,169.784c-0.808,-2.035 -2.819,-2.738 -4.938,-1.842c-0.527,0.222 -1.156,0.512 -1.019,1.122c0.103,0.455 0.602,0.886 1.027,1.181c0.302,0.209 0.77,0.219 1.168,0.237c1.274,0.06 2.506,-0.145 3.762,-0.698Zm-3.272,-3.055c1.069,0.034 1.954,0.375 2.788,0.894c0.714,0.443 1.027,1.18 0.992,1.934c-0.018,0.387 -0.47,0.956 -0.849,1.087c-1.531,0.529 -3.115,0.958 -4.731,0.318c-0.408,-0.162 -0.833,-0.388 -1.132,-0.698c-0.97,-1.008 -0.844,-2.081 0.392,-2.713c0.783,-0.399 1.689,-0.556 2.54,-0.822Z" style="fill:#e0e0e0;fill-rule:nonzero;"/><path d="M523.572,181.606c2.031,3.948 5.974,5.787 9.33,8.488c-1.449,0.176 -2.24,-0.117 -4.639,-1.836c-1.334,-0.956 -2.583,-2.029 -4.063,-3.2c-0.764,2.722 0.038,5.625 -1.63,8.095c-0.286,-0.319 -0.577,-0.5 -0.563,-0.65c0.348,-3.586 0.728,-7.168 1.102,-10.75c0.153,-0.049 0.308,-0.098 0.463,-0.147Z" style="fill:#e0e0e0;fill-rule:nonzero;"/><path d="M558.468,217.093c2.774,-0.305 4.432,0.857 4.779,3.076c0.4,2.559 -1.203,4.816 -3.713,5.229c-2.371,0.389 -4.372,-1.09 -4.783,-3.535c-0.352,-2.101 0.851,-3.896 3.319,-4.372c-0.525,0.689 -0.8,1.196 -1.205,1.556c-1.202,1.067 -1.165,3.495 0.329,4.667c1.199,0.94 3.222,0.559 4.243,-0.789c1.079,-1.426 0.731,-3.564 -0.786,-4.6c-0.577,-0.394 -1.219,-0.692 -2.183,-1.232Z" style="fill:#e0e0e0;fill-rule:nonzero;"/><path d="M539.526,261.584c3.035,-0.302 4.489,0.78 4.565,3.1c0.078,2.4 -1.874,4.349 -4.367,4.361c-2.547,0.012 -4.328,-1.721 -4.21,-4.098c0.097,-1.943 1.218,-2.999 3.173,-2.845c-0.659,1.202 -2.436,1.854 -1.824,3.545c0.228,0.627 0.635,1.317 1.166,1.681c1.394,0.961 3.554,0.381 4.369,-1.037c1.035,-1.803 0.32,-3.075 -2.872,-4.707Z" style="fill:#e0e0e0;fill-rule:nonzero;"/><path d="M623.278,65.287c-0.094,2.276 -0.455,4.387 -0.189,6.414c0.278,2.077 1.012,4.142 1.84,6.083c0.84,1.945 2.048,3.73 3.13,5.658c-2.313,-0.863 -4.787,-4.923 -5.846,-9.477c-0.893,-3.848 -0.568,-7.007 1.065,-8.678Z" style="fill:#e0e0e0;fill-rule:nonzero;"/><path d="M143.509,154.207c-0.336,0.161 -0.702,0.28 -1.002,0.491c-0.565,0.401 -1.189,0.779 -1.612,1.308c-0.545,0.681 -0.366,1.718 0.195,2.025c0.811,0.443 1.907,0.021 2.227,-0.896c0.165,-0.47 0.245,-0.97 0.379,-1.524c0.529,1.033 0.502,1.749 -0.049,2.478c-0.564,0.747 -1.524,1.082 -2.433,0.848c-0.735,-0.188 -1.301,-0.965 -1.351,-1.82c-0.101,-1.695 1.795,-3.585 3.646,-2.91Z" style="fill:#e0e0e0;fill-rule:nonzero;"/><path d="M75.042,14.383c4.288,3.145 8.576,6.291 12.894,9.459c-0.374,0.928 -1.025,0.495 -1.507,0.164c-2.804,-1.929 -5.621,-3.843 -8.343,-5.885c-1.243,-0.932 -2.278,-2.141 -3.407,-3.225c0.121,-0.171 0.242,-0.342 0.363,-0.513Z" style="fill:#e0e0e0;fill-rule:nonzero;"/><path d="M618.29,85.313c-4.219,-3.159 -6.147,-12.914 -3.84,-16.622c1.136,1.342 -0.006,2.74 0.231,4.035c0.26,1.396 0.16,2.862 0.45,4.249c0.29,1.386 0.816,2.729 1.325,4.06c0.491,1.295 1.089,2.551 1.834,4.278Z" style="fill:#e0e0e0;fill-rule:nonzero;"/><path d="M46.79,42.696c-0.876,-1.878 -1.56,-13.216 -1.186,-17.122c1.052,0.947 1.023,2.179 1.1,3.219c0.292,3.962 0.447,7.934 0.6,11.905c0.02,0.535 -0.269,1.082 -0.514,1.998Z" style="fill:#e0e0e0;fill-rule:nonzero;"/><path d="M385.581,49.615c-0.3,-0.261 -0.716,-0.893 -1.262,-1.038c-1.236,-0.33 -2.684,0.654 -2.668,1.717c0.013,0.827 0.341,1.566 1.304,1.739c0.989,0.177 2.474,-0.994 2.626,-2.418Zm-2.512,3.747c-1.544,-0.037 -2.621,-1.311 -2.587,-3.062c0.035,-1.784 1.189,-2.781 3.13,-2.704c2.051,0.081 3.198,0.953 3.19,2.426c-0.008,1.584 -2.016,3.381 -3.733,3.34Z" style="fill:#e0e0e0;fill-rule:nonzero;"/><path d="M379.274,32.388c2.309,0.424 2.911,1.426 2.122,3.097c-0.732,1.554 -2.769,2.446 -4.156,1.822c-1.486,-0.669 -2.225,-2.45 -1.667,-4.012c0.509,-1.423 1.305,-1.621 2.905,-0.725c-1.957,1.176 -2.278,1.801 -1.496,2.905c0.664,0.937 1.73,1.018 2.684,0.204c1.104,-0.942 1.048,-1.705 -0.392,-3.291Z" style="fill:#e0e0e0;fill-rule:nonzero;"/><path d="M547.558,133.136c-0.857,1.268 -1.636,2.07 -1.997,3.029c-0.719,1.911 -1.222,3.905 -1.788,5.872c-0.343,1.193 -0.638,2.398 -1.353,3.607c-0.074,-0.386 -0.228,-0.775 -0.209,-1.156c0.159,-3.122 1.027,-6.087 2.232,-8.938c0.456,-1.08 1.004,-2.34 3.115,-2.414Z" style="fill:#e0e0e0;fill-rule:nonzero;"/><path d="M348.661,63.956c-0.323,1.836 -0.1,2.502 0.783,2.579c0.968,0.086 1.649,-0.696 1.833,-2.23c-0.874,-0.117 -1.749,-0.233 -2.616,-0.349Zm1.003,3.746c-1.458,0.052 -2.849,-1.218 -2.882,-2.631c-0.03,-1.212 1.214,-2.449 2.465,-2.452c1.588,-0.002 3.388,1.31 3.367,2.455c-0.024,1.27 -1.49,2.576 -2.95,2.628Z" style="fill:#e0e0e0;fill-rule:nonzero;"/><path d="M577.779,240.564c-1.217,-0.021 -2.534,1.065 -2.588,1.814c-0.052,0.732 0.725,1.589 1.438,1.587c0.675,-0.003 1.911,-1.319 1.837,-2.177c-0.042,-0.484 -0.513,-0.933 -0.687,-1.224Zm-0.704,-0.777c1.603,-0.013 2.688,0.767 2.719,1.956c0.038,1.468 -1.718,3.386 -3.109,3.395c-1.336,0.009 -2.581,-1.186 -2.642,-2.538c-0.074,-1.652 1.16,-2.797 3.032,-2.813Z" style="fill:#e0e0e0;fill-rule:nonzero;"/><path d="M567.607,228.224c-1.135,1.715 -1.198,2.4 -0.387,2.976c0.815,0.579 1.834,0.247 2.354,-0.768c0.518,-1.011 0.277,-1.459 -1.239,-2.213c0.852,-0.994 1.582,-0.415 2.185,0.197c0.712,0.722 0.612,2.146 -0.096,3.076c-0.867,1.135 -2.469,1.633 -3.571,1.108c-0.944,-0.45 -1.827,-2.244 -1.592,-3.233c0.209,-0.872 0.705,-1.138 2.346,-1.143Z" style="fill:#e0e0e0;fill-rule:nonzero;"/><path d="M549.997,134.94c-0.782,3.739 -1.564,7.478 -2.346,11.216c-0.184,-0.005 -0.368,-0.01 -0.552,-0.015c-0,-0.779 -0.092,-1.571 0.017,-2.334c0.325,-2.274 0.666,-4.55 1.135,-6.796c0.174,-0.833 0.725,-1.587 1.105,-2.377c0.214,0.102 0.427,0.204 0.641,0.306Z" style="fill:#e0e0e0;fill-rule:nonzero;"/><path d="M552.779,263.09c-0.594,0.151 -1.221,0.223 -1.757,0.483c-0.272,0.13 -0.559,0.624 -0.518,0.907c0.043,0.296 0.426,0.671 0.74,0.775c1.214,0.403 1.854,-0.468 1.535,-2.165Zm-1.068,-0.993c1.616,-0.016 2.421,0.608 2.478,1.915c0.058,1.352 -1.099,2.6 -2.495,2.69c-1.225,0.079 -2.511,-1.115 -2.53,-2.35c-0.021,-1.26 1.087,-2.242 2.547,-2.255Z" style="fill:#e0e0e0;fill-rule:nonzero;"/><path d="M389.099,51.6c1.153,-0.626 1.942,-1.46 1.693,-3.016c1.149,1.292 2.438,1.75 4.433,1.434c-1.229,1.125 -2.761,1.597 -2.444,3.443c-0.485,-0.509 -0.969,-1.018 -1.455,-1.527c-0.667,0.039 -1.335,0.079 -2.002,0.118c-0.075,-0.15 -0.15,-0.301 -0.225,-0.452Z" style="fill:#e0e0e0;fill-rule:nonzero;"/><path d="M346.324,74.976c0,1.268 -1.016,2.37 -2.149,2.329c-0.962,-0.034 -1.498,-0.678 -1.447,-1.738c0.057,-1.182 0.996,-2.247 1.99,-2.256c0.878,-0.007 1.606,0.748 1.606,1.665Z" style="fill:#e0e0e0;fill-rule:nonzero;"/><path d="M629.367,27.993c-1.84,-0.922 -3.675,-5.702 -3.556,-9.231c0.207,0.148 0.479,0.235 0.544,0.403c1.059,2.714 2.101,5.436 3.124,8.167c0.065,0.176 -0.065,0.427 -0.112,0.661Z" style="fill:#e0e0e0;fill-rule:nonzero;"/><path d="M345.294,50.809c-0.48,0.581 -0.809,0.979 -1.137,1.376c0.226,0.163 0.493,0.499 0.67,0.457c0.649,-0.156 1.101,-0.525 0.467,-1.833Zm-0.74,3.127c-1.18,-0.034 -1.862,-0.802 -1.778,-2.005c0.083,-1.181 0.868,-1.93 1.974,-1.882c1.18,0.051 1.932,0.796 1.939,1.921c0.008,1.229 -0.834,2.004 -2.135,1.966Z" style="fill:#e0e0e0;fill-rule:nonzero;"/><path d="M640.195,38.397c-2.296,0.518 -5.065,-1.665 -7.011,-5.731c2.52,2.06 4.698,3.84 7.011,5.731Z" style="fill:#e0e0e0;fill-rule:nonzero;"/><path d="M550.161,272.575c0.801,0.02 1.524,0.861 1.545,1.793c0.025,1.142 -0.853,2.094 -1.855,2.014c-0.876,-0.07 -1.442,-0.83 -1.395,-1.875c0.049,-1.096 0.807,-1.954 1.705,-1.932Z" style="fill:#e0e0e0;fill-rule:nonzero;"/><path d="M585.478,242.481c-0.437,-0.3 -0.935,-0.642 -1.354,-0.93c-0.655,0.235 -1.255,0.45 -1.854,0.665c0.347,-1.232 1.102,-2.13 0.224,-3.388c1.391,0.428 2.578,1.169 3.921,0.033c-0.351,1.353 -0.631,2.44 -0.937,3.62Z" style="fill:#e0e0e0;fill-rule:nonzero;"/><path d="M544.673,253.946c-1.019,0.004 -1.694,0.242 -0.882,1.339c0.351,-0.532 0.617,-0.936 0.882,-1.339Zm1.073,0.169c-0.002,1.277 -0.86,2.178 -2.028,2.133c-0.975,-0.039 -1.817,-0.908 -1.786,-1.844c0.036,-1.124 0.859,-1.835 2.071,-1.787c1.136,0.044 1.744,0.568 1.743,1.498Z" style="fill:#e0e0e0;fill-rule:nonzero;"/><path d="M385.197,59.452c-0.173,1.231 -0.898,1.837 -1.962,1.741c-0.504,-0.045 -1.301,-0.596 -1.358,-1.002c-0.096,-0.692 0.205,-1.491 0.523,-2.158c0.08,-0.169 0.947,-0.172 1.281,0.031c0.584,0.356 1.035,0.93 1.516,1.388Z" style="fill:#e0e0e0;fill-rule:nonzero;"/><path d="M477.514,123.662c1.808,1.738 2.41,3.846 2.727,6.043c0.05,0.344 -0.316,0.747 -0.922,1.108c-0.602,-2.384 -1.203,-4.767 -1.805,-7.151Z" style="fill:#e0e0e0;fill-rule:nonzero;"/><path d="M581.252,250.042c-0.678,0.749 -1.042,1.446 -1.599,1.671c-0.432,0.174 -1.369,-0.072 -1.603,-0.437c-0.319,-0.501 -0.389,-1.361 -0.194,-1.942c0.227,-0.673 0.932,-0.739 1.587,-0.322c0.45,0.287 0.927,0.531 1.809,1.03Z" style="fill:#e0e0e0;fill-rule:nonzero;"/><path d="M527.753,194.877c0.138,2.37 0.184,4.72 -0.751,7.047c-0.333,-0.136 -0.7,-0.208 -0.705,-0.301c-0.138,-2.357 0.443,-4.588 1.456,-6.746Z" style="fill:#e0e0e0;fill-rule:nonzero;"/><path d="M519.933,214.297c0.402,-2.593 2.213,-4.101 4.046,-5.598c-0.859,2.224 -2.179,4.117 -4.046,5.598Z" style="fill:#e0e0e0;fill-rule:nonzero;"/><path d="M224.652,119.271c2.295,0.203 4.387,0.901 6.46,2.235c-0.353,0.332 -0.614,0.722 -0.751,0.683c-2.09,-0.599 -4.001,-1.56 -5.709,-2.918Z" style="fill:#e0e0e0;fill-rule:nonzero;"/><path d="M513.673,217.477c-1.732,1.184 -3.549,2.181 -5.726,2.313c-0.296,0.019 -0.604,-0.155 -0.907,-0.241c0.122,-0.218 0.243,-0.435 0.365,-0.653c2.029,-0.644 4.058,-1.289 6.087,-1.933c0.06,0.172 0.12,0.343 0.181,0.514Z" style="fill:#e0e0e0;fill-rule:nonzero;"/><path d="M567.374,239.192c0.172,-0.938 0.309,-1.685 0.468,-2.553c0.85,0.394 1.592,0.738 2.432,1.128c-0.251,0.668 -0.507,1.353 -0.825,2.201c-0.665,-0.249 -1.273,-0.476 -2.075,-0.776Z" style="fill:#e0e0e0;fill-rule:nonzero;"/><path d="M251.186,129.638c-2.465,0.16 -5.003,-0.771 -7.051,-2.452c2.467,0.452 4.752,0.624 7.051,2.452Z" style="fill:#e0e0e0;fill-rule:nonzero;"/><path d="M263.466,135.245c2.561,0.615 3.951,1.47 5.247,3.078c-1.408,0.304 -2.927,-0.559 -5.247,-3.078Z" style="fill:#e0e0e0;fill-rule:nonzero;"/><path d="M376.14,41.535c0.309,0.382 0.558,0.774 0.889,1.076c0.269,0.245 0.638,0.382 1.06,0.623c-0.55,0.73 -1.037,1.374 -1.622,2.149c-0.644,-0.542 -1.259,-1.06 -1.817,-1.53c0.489,-0.761 0.925,-1.439 1.49,-2.318Z" style="fill:#e0e0e0;fill-rule:nonzero;"/><path d="M204.907,103.509c-1.336,-1.427 -2.139,-3.067 -2.006,-5.263c1.144,0.925 2.163,3.37 2.006,5.263Z" style="fill:#e0e0e0;fill-rule:nonzero;"/><path d="M211.532,109.88c1.089,1.399 2.179,2.797 3.274,4.204c0.061,-0.021 -0.327,0.265 -0.544,0.168c-1.35,-0.605 -2.734,-2.579 -2.73,-4.372Z" style="fill:#e0e0e0;fill-rule:nonzero;"/><path d="M573.555,217.015c-1.368,1.097 -2.787,2.083 -5.089,1.802c1.564,-1.7 3.316,-1.774 5.089,-1.802Z" style="fill:#e0e0e0;fill-rule:nonzero;"/><path d="M389.132,22.489c-2.313,0.997 -4.107,0.828 -6.073,0.515c1.264,-1.064 2.728,-1.197 6.073,-0.515Z" style="fill:#e0e0e0;fill-rule:nonzero;"/><path d="M497.034,221.675c0.821,-1.611 1.642,-1.89 3.902,-1.508c-1.027,1.147 -2.294,1.221 -3.902,1.508Z" style="fill:#e0e0e0;fill-rule:nonzero;"/><path d="M625.483,256.102c-0.094,-0.244 -0.189,-0.487 -0.284,-0.729c0.627,-0.563 1.268,-1.11 1.877,-1.692c0.571,-0.545 1.188,-1.069 1.643,-1.705c0.922,-1.29 0.343,-2.697 -1.183,-3.051c-2.736,-0.634 -5.061,1.377 -4.448,4.101c0.759,3.374 1.833,6.676 2.855,10.308c1.614,-0.401 3.175,-0.638 4.609,-1.201c0.912,-0.358 1.799,-1.072 2.409,-1.853c1.48,-1.896 0.651,-4.057 -1.716,-4.466c-1.144,-0.198 -2.36,-0.024 -3.541,0.034c-0.743,0.035 -1.481,0.165 -2.221,0.254Zm3.482,-2.026c0.956,0.191 1.647,0.394 2.35,0.455c1.939,0.17 3.07,1.359 3.531,3.067c0.5,1.852 -0.178,3.524 -1.754,4.593c-1.094,0.741 -2.375,1.263 -3.639,1.683c-1.495,0.495 -3.061,0.775 -4.531,1.133c-0.203,-0.171 -0.421,-0.268 -0.422,-0.367c-0.041,-3.963 -1.944,-7.494 -2.626,-11.312c-0.303,-1.691 -0.259,-3.282 1.15,-4.329c1.628,-1.209 3.513,-1.854 5.584,-0.984c1.793,0.754 2.404,2.298 1.56,4.069c-0.302,0.635 -0.727,1.212 -1.203,1.992Z" style="fill:#e0e0e0;fill-rule:nonzero;"/><path d="M631.875,209.479c-0.258,-2.191 -1.229,-3.813 -2.441,-5.274c-1.37,-1.652 -3.033,-1.453 -3.953,0.497c-0.921,1.949 -1.268,4.03 -0.883,6.274c2.423,-0.498 4.726,-0.972 7.277,-1.497Zm0.568,1.182c-2.13,0.423 -4.083,0.76 -6.011,1.208c-2.094,0.487 -2.363,0.904 -2.405,3.146c-0.023,1.273 0,2.551 -0.115,3.815c-0.066,0.725 -0.054,1.594 -1.096,2.088c-0.139,-0.385 -0.329,-0.652 -0.313,-0.905c0.23,-3.558 0.451,-7.118 0.756,-10.671c0.122,-1.417 0.361,-2.836 0.697,-4.219c0.399,-1.647 1.363,-2.889 3.145,-3.193c1.736,-0.296 2.903,0.693 3.751,2.014c0.855,1.329 1.609,2.734 2.275,4.169c0.414,0.894 0.917,1.457 2.348,1.283c-0.613,0.542 -0.928,0.82 -1.426,1.261c0.446,1.189 0.788,2.593 1.475,3.801c0.739,1.299 0.603,2.353 -0.355,3.591c-1.574,-2.158 -1.569,-4.877 -2.726,-7.388Z" style="fill:#e0e0e0;fill-rule:nonzero;"/><path d="M677.861,252.285c-0.425,2.393 -1.681,3.533 -3.366,4.218c-4.174,1.693 -9.389,-0.85 -10.932,-5.054c-1.547,-4.22 1.387,-9.495 5.589,-10.615c1.775,-0.474 3.48,-0.296 5.067,0.63c0.264,0.155 0.372,0.577 0.83,1.338c-1.487,-0.417 -2.489,-0.883 -3.512,-0.932c-0.99,-0.049 -2.091,0.144 -2.98,0.571c-0.971,0.467 -1.892,1.21 -2.578,2.044c-0.635,0.77 -1.047,1.784 -1.351,2.754c-0.87,2.773 0.431,5.833 3.022,7.364c3.494,2.063 6.044,1.544 10.211,-2.318Z" style="fill:#e0e0e0;fill-rule:nonzero;"/><path d="M55.706,62.633c-8.751,4.388 -17.496,8.774 -26.354,13.214c0.345,1.223 0.655,2.32 1.012,3.585c1.361,-0.531 2.51,-0.87 3.558,-1.407c7.142,-3.658 14.271,-7.341 21.386,-11.052c2.007,-1.047 2.075,-2.224 0.398,-4.34Zm0.815,-1.761c0.354,0.605 0.536,0.864 0.666,1.147c1.686,3.646 1.252,4.821 -2.252,6.617c-5.946,3.046 -11.862,6.15 -17.799,9.212c-1.273,0.657 -2.548,1.339 -3.889,1.823c-1.086,0.393 -2.275,0.507 -3.641,0.792c-0.412,-1.26 -0.794,-2.277 -1.074,-3.323c-0.483,-1.808 -0.291,-2.647 1.431,-3.174c4.925,-1.507 8.889,-4.88 13.647,-6.735c3.231,-1.259 6.192,-3.204 9.299,-4.795c1.116,-0.571 2.303,-1.002 3.612,-1.564Z" style="fill:#e0e0e0;fill-rule:nonzero;"/><path d="M184.653,28.359c-0.009,-2.674 -3.498,-4.818 -5.875,-4.796c-2.257,0.02 -4.557,2.856 -4.576,5.531c-0.017,2.521 2.289,4.636 5.034,4.614c2.672,-0.021 5.466,-2.78 5.417,-5.349Zm-5.476,6.612c-3.116,-0.013 -5.851,-2.269 -6.251,-5.155c-0.383,-2.761 1.999,-6.61 4.599,-7.361c1.65,-0.477 3.149,-0.106 4.41,1.058c0.566,0.521 1.075,0.915 1.894,1.183c1.476,0.484 1.913,2.022 1.983,3.497c0.161,3.421 -3.174,6.792 -6.635,6.778Z" style="fill:#e0e0e0;fill-rule:nonzero;"/><path d="M677.573,31.652c-7.041,1.664 -14.059,3.322 -21.171,5.004l0,2.569c0.473,-0.047 0.781,-0.04 1.071,-0.114c3.929,-0.99 7.84,-2.021 11.775,-2.983c2.473,-0.605 4.982,-1.063 7.45,-1.678c1.798,-0.447 1.964,-1.15 0.875,-2.798Zm1.379,-1.362c0.172,0.902 0.349,1.51 0.396,2.128c0.154,1.951 -0.461,2.8 -2.355,3.247c-2.775,0.652 -5.568,1.224 -8.331,1.916c-2.384,0.599 -4.745,1.308 -7.112,1.986c-1.935,0.557 -3.894,0.658 -5.988,0.366c-0.207,-0.701 -0.503,-1.36 -0.574,-2.044c-0.166,-1.569 0.686,-2.536 2.219,-2.856c2.165,-0.451 4.313,-0.999 6.467,-1.482c1.468,-0.328 2.953,-0.579 4.408,-0.931c2.699,-0.652 5.373,-1.384 8.077,-2.017c0.876,-0.206 1.799,-0.208 2.793,-0.313Z" style="fill:#e0e0e0;fill-rule:nonzero;"/><path d="M718.425,283.151c-0.036,2.142 1.55,3.751 3.733,3.797c2.03,0.043 4.065,-2.045 4.107,-4.217c0.035,-2.012 -1.87,-3.73 -4.154,-3.742c-2.065,-0.01 -3.645,1.777 -3.686,4.162Zm-1.225,0.117c-0.042,-1.949 0.751,-3.452 2.16,-4.647c0.355,-0.302 0.786,-0.555 1.224,-0.705c2.598,-0.886 4.308,1.111 6.095,2.248c1.426,0.909 1.177,2.886 0.491,4.414c-0.941,2.107 -2.521,3.503 -4.97,3.483c-3.083,-0.024 -5.296,-2.171 -5,-4.793Z" style="fill:#e0e0e0;fill-rule:nonzero;"/></g></svg>