<?xml version="1.0" encoding="UTF-8" standalone="no"?>
<!DOCTYPE svg PUBLIC "-//W3C//DTD SVG 1.1//EN" "http://www.w3.org/Graphics/SVG/1.1/DTD/svg11.dtd">
<svg width="100%" height="100%" viewBox="0 0 265 231" version="1.1" xmlns="http://www.w3.org/2000/svg" xmlns:xlink="http://www.w3.org/1999/xlink" xml:space="preserve" xmlns:serif="http://www.serif.com/" style="fill-rule:evenodd;clip-rule:evenodd;stroke-linejoin:round;stroke-miterlimit:2;">
    <g id="Prancheta1" transform="matrix(1,0,0,1.29632,-117.565,-136.84)">
        <rect x="117.565" y="105.561" width="264.87" height="177.936" style="fill:none;"/>
        <g transform="matrix(1,0,0,0.815691,1.42109e-14,52.1877)">
            <g id="OBJECTS">
                <g>
                    <g>
                        <g transform="matrix(1,0,0,1,-3.99356,0)">
                            <g transform="matrix(1.42594,0,0,1.42594,382.551,253.71)">
                                <path d="M0,10.21C0,10.21 -52.327,-10.679 -90.156,19.197C-90.156,19.197 -45.758,3.424 2.719,20.889L0,10.21Z" style="fill:rgb(34,52,98);fill-rule:nonzero;"/>
                            </g>
                            <g transform="matrix(1.42594,0,0,1.42594,377.061,244.988)">
                                <path d="M0,10.202L-6.796,-1.978C-59.123,-12.063 -85.105,22.265 -85.105,22.265C-41.454,-6.123 0,10.202 0,10.202" style="fill:rgb(3,147,254);fill-rule:nonzero;"/>
                            </g>
                            <g transform="matrix(1.42594,0,0,1.42594,358.397,257.967)">
                                <path d="M0,-15.452L-9.11,-25.79C-59.942,-25.79 -72.017,10.338 -72.017,10.338C-51.018,-21.386 0,-15.452 0,-15.452" style="fill:rgb(254,186,44);fill-rule:nonzero;"/>
                            </g>
                            <g transform="matrix(1.42594,0,0,1.42594,125.436,253.71)">
                                <path d="M0,10.21L-2.719,20.889C45.758,3.424 90.156,19.197 90.156,19.197C52.327,-10.679 0,10.21 0,10.21" style="fill:rgb(34,52,98);fill-rule:nonzero;"/>
                            </g>
                            <g transform="matrix(1.42594,0,0,1.42594,252.282,227.787)">
                                <path d="M0,34.328C0,34.328 -25.982,0 -78.31,10.085L-85.105,22.265C-85.105,22.265 -43.651,5.939 0,34.328" style="fill:rgb(3,147,254);fill-rule:nonzero;"/>
                            </g>
                            <g transform="matrix(1.42594,0,0,1.42594,252.282,221.192)">
                                <path d="M0,36.128C0,36.128 -12.074,0 -62.906,0L-72.017,10.338C-72.017,10.338 -20.999,4.404 0,36.128" style="fill:rgb(254,186,44);fill-rule:nonzero;"/>
                            </g>
                        </g>
                        <g transform="matrix(1,0,0,1,-4.73642,0)">
                            <g transform="matrix(0,211.995,211.995,0,318.628,74.6906)">
                                <path d="M0.276,-0.158C0.3,-0.173 0.331,-0.173 0.354,-0.158C0.396,-0.133 0.402,-0.081 0.384,-0.041C0.373,-0.014 0.353,0.024 0.257,0.065C0.252,0.067 0.247,0.062 0.25,0.057C0.263,0.036 0.279,-0.005 0.251,-0.051L0.251,-0.051C0.243,-0.064 0.239,-0.078 0.239,-0.092C0.239,-0.118 0.251,-0.143 0.276,-0.158ZM0.284,-0.286C0.425,-0.293 0.568,-0.244 0.676,-0.136C0.762,-0.05 0.811,0.058 0.823,0.169C0.825,0.181 0.809,0.185 0.804,0.175C0.75,0.062 0.64,-0.097 0.649,0.039C0.657,0.142 0.611,0.234 0.577,0.286C0.571,0.296 0.557,0.29 0.559,0.279C0.582,0.16 0.561,-0.008 0.522,0.031C0.499,0.054 0.453,0.096 0.415,0.13C0.407,0.138 0.394,0.127 0.4,0.118C0.536,-0.111 0.361,-0.226 0.28,-0.267C0.276,-0.269 0.275,-0.272 0.275,-0.276C0.275,-0.28 0.278,-0.285 0.284,-0.286Z" style="fill:rgb(5,147,254);fill-rule:nonzero;"/>
                            </g>
                            <g transform="matrix(0,136.77,136.77,0,190.845,117.407)">
                                <path d="M0.093,0.059C0.139,0.012 0.214,0.012 0.261,0.059C0.307,0.105 0.307,0.181 0.261,0.227C0.214,0.273 0.139,0.273 0.093,0.227C0.069,0.204 0.058,0.173 0.058,0.143C0.058,0.112 0.069,0.082 0.093,0.059ZM0.122,0.413C0.247,0.351 0.519,0.172 0.307,-0.182C0.298,-0.198 0.318,-0.214 0.331,-0.202C0.391,-0.148 0.461,-0.084 0.497,-0.048C0.557,0.012 0.589,-0.248 0.554,-0.432C0.551,-0.449 0.573,-0.458 0.582,-0.444C0.634,-0.363 0.705,-0.221 0.694,-0.061C0.679,0.15 0.85,-0.097 0.934,-0.271C0.942,-0.287 0.966,-0.28 0.964,-0.262C0.944,-0.089 0.868,0.078 0.736,0.211C0.569,0.378 0.347,0.455 0.128,0.443C0.119,0.442 0.114,0.435 0.114,0.427C0.114,0.422 0.116,0.416 0.122,0.413Z" style="fill:rgb(5,147,254);fill-rule:nonzero;"/>
                            </g>
                        </g>
                        <g transform="matrix(1,0,0,1,249.95,125.346)">
                            <path d="M0,-28.722L5.077,-19.438L14.36,-14.361L5.077,-9.284L0,0L-5.078,-9.284L-14.361,-14.361L-5.078,-19.438L0,-28.722Z" style="fill:rgb(254,186,44);fill-rule:nonzero;"/>
                        </g>
                        <g transform="matrix(0.613682,0,0,0.613682,237.081,96.1769)">
                            <path d="M0,-28.722L5.077,-19.438L14.36,-14.361L5.077,-9.284L0,0L-5.078,-9.284L-14.361,-14.361L-5.078,-19.438L0,-28.722Z" style="fill:rgb(254,186,44);fill-rule:nonzero;"/>
                        </g>
                        <g transform="matrix(0.613682,0,0,0.613682,263.619,83.1367)">
                            <path d="M0,-28.722L5.077,-19.438L14.36,-14.361L5.077,-9.284L0,0L-5.078,-9.284L-14.361,-14.361L-5.078,-19.438L0,-28.722Z" style="fill:rgb(254,186,44);fill-rule:nonzero;"/>
                        </g>
                    </g>
                </g>
            </g>
        </g>
    </g>
</svg>
